<svg width="1920" height="2294" viewBox="0 0 1920 2294" fill="none" xmlns="http://www.w3.org/2000/svg">
<rect width="117.86" height="117.86" rx="58.9298" transform="matrix(0.965926 -0.258819 -0.258819 -0.965926 1128.01 486)" fill="#2E2E2E"/>
<rect width="117.86" height="117.86" rx="58.9298" transform="matrix(0.965926 -0.258819 -0.258819 -0.965926 1097.5 372.156)" fill="#2E2E2E"/>
<rect width="117.86" height="117.86" transform="matrix(0.965926 -0.258819 -0.258819 -0.965926 1241.85 455.496)" fill="#2E2E2E"/>
<rect width="117.86" height="117.86" transform="matrix(0.965926 -0.258819 -0.258819 -0.965926 1211.35 341.652)" fill="#2E2E2E"/>
<path d="M1355.7 424.991L1362.67 423.123C1418.68 408.115 1451.92 350.539 1436.91 294.525L1430.26 269.682C1415.25 213.668 1357.67 180.427 1301.66 195.436L1294.69 197.304L1355.7 424.991Z" fill="#2E2E2E"/>
<path d="M1463.48 396.11L1470.46 394.242C1526.47 379.233 1559.71 321.657 1544.7 265.643L1538.05 240.801C1523.04 184.787 1465.46 151.546 1409.45 166.554L1402.48 168.422L1463.48 396.11Z" fill="#2E2E2E"/>
<path d="M1679.67 338.184L1672.7 340.052C1616.68 355.061 1559.11 321.82 1544.1 265.806L1537.44 240.963C1522.43 184.949 1555.67 127.374 1611.69 112.365L1618.66 110.497L1679.67 338.184Z" fill="#2E2E2E"/>
<path d="M1787.45 309.302L1780.48 311.17C1724.47 326.179 1666.89 292.938 1651.88 236.924L1645.23 212.081C1630.22 156.067 1663.46 98.4921 1719.47 83.4833L1726.45 81.6153L1787.45 309.302Z" fill="#2E2E2E"/>
<path d="M2092.05 227.687L1786.85 309.465L1725.84 81.7775L2031.04 3.27428e-05L2092.05 227.687Z" fill="#2E2E2E"/>
<path d="M1692.01 1846C1658.31 1720.25 1732.94 1591 1858.69 1557.3L1936.2 1536.54L1997.21 1764.22L1692.01 1846Z" fill="#2E2E2E"/>
<rect width="240.976" height="240.976" rx="120.488" transform="matrix(-0.965926 0.258819 0.258819 0.965926 -1.23486 1186.94)" fill="#2E2E2E"/>
<path d="M402.085 829.044L285.702 860.229C221.426 877.452 183.282 943.52 200.505 1007.8C217.727 1072.07 283.795 1110.22 348.072 1092.99C412.348 1075.77 450.492 1009.7 433.27 945.427L402.085 829.044Z" fill="#2E2E2E"/>
<path d="M527.134 1295.07L410.752 1326.26C346.475 1343.48 280.407 1305.33 263.184 1241.06C245.962 1176.78 284.106 1110.71 348.382 1093.49C412.659 1076.27 478.727 1114.41 495.949 1178.69L527.134 1295.07Z" fill="#2E2E2E"/>
<path d="M169.32 891.414L52.9376 922.598C-11.3387 939.821 -49.4831 1005.89 -32.2603 1070.17L-1.07573 1186.55L115.307 1155.36C179.583 1138.14 217.727 1072.07 200.505 1007.8L169.32 891.414Z" fill="#2E2E2E"/>
<path d="M29.1846 1298.69C11.9618 1234.41 50.1062 1168.34 114.382 1151.12C178.659 1133.9 244.727 1172.04 261.95 1236.32L293.134 1352.7L60.3692 1415.07L29.1846 1298.69Z" fill="#2E2E2E"/>
<rect width="119.36" height="119.36" rx="59.68" transform="matrix(-0.965926 0.258819 0.258819 0.965926 1474.59 1905)" fill="#2E2E2E"/>
<rect width="119.36" height="119.36" rx="59.68" transform="matrix(-0.965926 0.258819 0.258819 0.965926 1505.48 2020.29)" fill="#2E2E2E"/>
<rect width="119.36" height="119.36" rx="59.68" transform="matrix(-0.965926 0.258819 0.258819 0.965926 1359.29 1935.89)" fill="#2E2E2E"/>
<rect width="119.36" height="119.36" rx="59.68" transform="matrix(-0.965926 0.258819 0.258819 0.965926 1390.19 2051.18)" fill="#2E2E2E"/>
<path d="M1911.23 1788L1902.88 1790.24C1846.86 1805.25 1813.62 1862.82 1828.63 1918.84L1836.06 1946.58C1851.07 2002.59 1908.65 2035.83 1964.66 2020.82L1973.01 2018.59L1911.23 1788Z" fill="#2E2E2E"/>
<path d="M1692.29 1846.66L1700.64 1844.43C1756.66 1829.42 1814.23 1862.66 1829.24 1918.67L1836.68 1946.41C1851.68 2002.43 1818.44 2060 1762.43 2075.01L1754.08 2077.25L1692.29 1846.66Z" fill="#2E2E2E"/>
<path d="M1583.13 1875.91L1591.48 1873.67C1647.5 1858.67 1705.07 1891.91 1720.08 1947.92L1727.52 1975.66C1742.52 2031.68 1709.28 2089.25 1653.27 2104.26L1644.92 2106.5L1583.13 1875.91Z" fill="#2E2E2E"/>
<path d="M1473.97 1905.16L1583.75 1875.75L1645.53 2106.33L1535.76 2135.75L1473.97 1905.16Z" fill="#2E2E2E"/>
<rect width="120.419" height="120.419" rx="60.2094" transform="matrix(0.965926 -0.258819 -0.258819 -0.965926 121.847 1647.96)" fill="#2E2E2E"/>
<rect width="120.419" height="120.419" rx="60.2094" transform="matrix(0.965926 -0.258819 -0.258819 -0.965926 90.6809 1531.65)" fill="#2E2E2E"/>
<rect width="120.419" height="120.419" rx="60.2094" transform="matrix(0.965926 -0.258819 -0.258819 -0.965926 238.163 1616.8)" fill="#2E2E2E"/>
<rect width="120.419" height="120.419" rx="60.2094" transform="matrix(0.965926 -0.258819 -0.258819 -0.965926 206.996 1500.48)" fill="#2E2E2E"/>
<path d="M12.3376 1677.31L3.01256 1679.81C-53.0014 1694.82 -110.577 1661.57 -125.586 1605.56L-133.567 1575.77C-148.576 1519.76 -115.335 1462.18 -59.3207 1447.18L-49.9957 1444.68L12.3376 1677.31Z" fill="#2E2E2E"/>
<path d="M122.466 1647.8L11.7188 1677.47L-50.6145 1444.84L60.1328 1415.17L122.466 1647.8Z" fill="#2E2E2E"/>
<line x1="1345.87" y1="576.727" x2="1861.67" y2="438.517" stroke="#393939"/>
<line x1="1512.87" y1="559.08" x2="1821" y2="476.517" stroke="#393939"/>
<line x1="1686.87" y1="575.08" x2="1995" y2="492.517" stroke="#959595"/>
<line x1="1484.96" y1="585.959" x2="1629.85" y2="547.136" stroke="#959595" stroke-width="8"/>
<line x1="-194.129" y1="711.727" x2="321.675" y2="573.517" stroke="#393939"/>
<line x1="-27.1294" y1="694.08" x2="281.001" y2="611.517" stroke="#393939"/>
<line x1="-55.0353" y1="720.959" x2="89.8536" y2="682.136" stroke="#393939" stroke-width="8"/>
<line x1="488.762" y1="2168.94" x2="53.1294" y2="2285.67" stroke="#393939"/>
<line x1="322.762" y1="1469.48" x2="-112.871" y2="1586.21" stroke="#393939"/>
<line x1="295.15" y1="2293.31" x2="91.459" y2="1533.13" stroke="#393939"/>
<line x1="270.15" y1="2263.31" x2="213.209" y2="2050.81" stroke="#393939"/>
<line x1="410.762" y1="2168.94" x2="-24.8706" y2="2285.67" stroke="#959595"/>
<line x1="434.668" y1="2153.32" x2="-0.964697" y2="2270.05" stroke="#393939" stroke-width="8"/>
<circle cx="231.633" cy="2186.18" r="16" transform="rotate(-180 231.633 2186.18)" fill="#393939"/>
<path d="M152.95 1764.38C170.172 1828.66 132.028 1894.73 67.7518 1911.95C3.47551 1929.17 -62.5925 1891.03 -79.8153 1826.75C-97.0381 1762.48 -58.8937 1696.41 5.38259 1679.18C69.6589 1661.96 135.727 1700.11 152.95 1764.38Z" fill="#2E2E2E"/>
<circle cx="1808" cy="541" r="16" fill="#393939"/>
<line x1="-142.129" y1="686.257" x2="185.319" y2="598.517" stroke="#959595" stroke-dasharray="10 10"/>
</svg>
