<?xml version="1.0" standalone="no"?>
<!DOCTYPE svg PUBLIC "-//W3C//DTD SVG 20010904//EN"
 "http://www.w3.org/TR/2001/REC-SVG-20010904/DTD/svg10.dtd">
<svg version="1.0" xmlns="http://www.w3.org/2000/svg"
 width="1772.000000pt" height="1772.000000pt" viewBox="0 0 1772.000000 1772.000000"
 preserveAspectRatio="xMidYMid meet">
<metadata>
Created by potrace 1.14, written by Peter Selinger 2001-2017
</metadata>
<g transform="translate(0.000000,1772.000000) scale(0.100000,-0.100000)"
fill="#000000" stroke="none">
<path d="M5867 15643 c-4 -3 -7 -780 -7 -1725 l0 -1718 2990 0 2990 0 0 1725
0 1725 -2983 0 c-1641 0 -2987 -3 -2990 -7z"/>
<path d="M8510 11023 c-19 -1 -87 -8 -150 -14 -771 -70 -1539 -339 -2195 -767
-1040 -678 -1764 -1742 -1969 -2892 -41 -234 -57 -398 -63 -675 -14 -641 73
-1163 284 -1695 604 -1524 2046 -2630 3733 -2865 314 -43 777 -58 1076 -35
1154 91 2199 557 3007 1340 865 838 1347 1958 1347 3130 0 1449 -738 2805
-1985 3649 -700 474 -1485 747 -2360 821 -109 9 -640 12 -725 3z m555 -3228
c266 -40 473 -144 672 -338 184 -179 293 -375 348 -627 25 -117 31 -354 11
-480 -84 -528 -477 -930 -1013 -1037 -120 -24 -357 -23 -473 1 -266 55 -469
163 -656 350 -185 185 -293 387 -350 651 -26 122 -23 350 5 484 63 296 222
553 459 742 271 216 633 309 997 254z"/>
</g>
</svg>
