<?xml version="1.0" standalone="no"?>
<!DOCTYPE svg PUBLIC "-//W3C//DTD SVG 20010904//EN"
 "http://www.w3.org/TR/2001/REC-SVG-20010904/DTD/svg10.dtd">
<svg version="1.0" xmlns="http://www.w3.org/2000/svg"
 width="2048.000000pt" height="2048.000000pt" viewBox="0 0 2048.000000 2048.000000"
 preserveAspectRatio="xMidYMid meet">
<metadata>
Created by potrace 1.14, written by Peter Selinger 2001-2017
</metadata>
<g transform="translate(0.000000,2048.000000) scale(0.100000,-0.100000)"
fill="#000000" stroke="none">
<path d="M3994 16498 l-19 -23 23 19 c21 18 27 26 19 26 -2 0 -12 -10 -23 -22z"/>
<path d="M3924 16428 l-19 -23 23 19 c21 18 27 26 19 26 -2 0 -12 -10 -23 -22z"/>
<path d="M4440 10335 l0 -5275 120 0 120 0 0 -120 0 -120 1165 0 1165 0 0
5275 0 5275 -120 0 -120 0 0 120 0 120 -1165 0 -1165 0 0 -5275z"/>
<path d="M8050 10335 l0 -5275 120 0 120 0 0 -120 0 -120 1160 0 1160 0 0
5275 0 5275 -115 0 -115 0 0 120 0 120 -1165 0 -1165 0 0 -5275z"/>
<path d="M12998 12457 l-1398 -902 0 -917 c0 -505 3 -918 8 -918 4 0 57 29
117 64 l110 64 3 -184 c1 -101 5 -184 8 -184 2 0 357 203 789 450 431 248 786
450 789 450 4 0 6 -655 6 -1455 l0 -1455 120 0 120 0 0 -120 0 -120 970 0 970
0 2 1645 3 1644 880 -505 c484 -278 892 -512 908 -520 l27 -15 0 918 0 918
-115 74 -115 74 0 43 c0 35 -5 46 -27 62 -35 25 -2774 1792 -2776 1791 -1 0
-631 -406 -1399 -902z"/>
<path d="M18625 7469 c-4 -6 -5 -12 -2 -15 2 -3 7 2 10 11 7 17 1 20 -8 4z"/>
<path d="M17035 4579 c-4 -6 -5 -12 -2 -15 2 -3 7 2 10 11 7 17 1 20 -8 4z"/>
<path d="M13860 2150 c-9 -6 -10 -10 -3 -10 6 0 15 5 18 10 8 12 4 12 -15 0z"/>
<path d="M11798 1503 c7 -3 16 -2 19 1 4 3 -2 6 -13 5 -11 0 -14 -3 -6 -6z"/>
</g>
</svg>
