<svg width="24" height="48" viewBox="0 0 24 48" fill="none" xmlns="http://www.w3.org/2000/svg">
<path d="M9.23309 48C4.58066 48 0.795593 44.2149 0.795593 39.5625V11.25C0.795593 5.04675 5.84234 0 12.0456 0C18.2488 0 23.2956 5.04675 23.2956 11.25V39.5625H20.4831V11.25C20.4831 6.59756 16.698 2.8125 12.0456 2.8125C7.39316 2.8125 3.60809 6.59756 3.60809 11.25V39.5625C3.60809 42.6641 6.13147 45.1875 9.23309 45.1875C12.3347 45.1875 14.8581 42.6641 14.8581 39.5625V16.875C14.8581 15.3242 13.5964 14.0625 12.0456 14.0625C10.4948 14.0625 9.23309 15.3242 9.23309 16.875V39.5625H6.42059V16.875C6.42059 13.7734 8.94397 11.25 12.0456 11.25C15.1472 11.25 17.6706 13.7734 17.6706 16.875V39.5625C17.6706 44.2149 13.8855 48 9.23309 48Z" fill="#732F85"/>
</svg>
