<?xml version="1.0" standalone="no"?>
<!DOCTYPE svg PUBLIC "-//W3C//DTD SVG 20010904//EN"
 "http://www.w3.org/TR/2001/REC-SVG-20010904/DTD/svg10.dtd">
<svg version="1.0" xmlns="http://www.w3.org/2000/svg"
 width="2000.000000pt" height="2000.000000pt" viewBox="0 0 2000.000000 2000.000000"
 preserveAspectRatio="xMidYMid meet">
<metadata>
Created by potrace 1.14, written by Peter Selinger 2001-2017
</metadata>
<g transform="translate(0.000000,2000.000000) scale(0.100000,-0.100000)"
fill="#000000" stroke="none">
<path d="M9490 15744 c-25 -2 -106 -8 -180 -14 -951 -77 -1891 -438 -2668
-1025 -459 -346 -794 -698 -1172 -1232 -15 -21 -16 -21 -125 -7 -159 21 -636
29 -825 15 -737 -56 -1459 -291 -2122 -691 -310 -187 -561 -382 -809 -629
-169 -170 -209 -214 -338 -376 -53 -66 -104 -126 -113 -133 -55 -41 -316 -469
-453 -741 -294 -588 -456 -1265 -472 -1971 -14 -641 93 -1223 339 -1839 234
-586 555 -1061 1029 -1526 749 -734 1699 -1191 2749 -1322 205 -25 771 -25
980 0 554 67 1098 225 1539 447 55 27 105 50 110 50 6 0 64 -26 129 -59 456
-225 940 -365 1472 -427 188 -21 628 -29 820 -15 1043 80 1958 474 2720 1173
627 574 1090 1336 1313 2157 l34 124 -5 -209 c-7 -317 19 -551 93 -852 107
-430 301 -828 576 -1182 87 -112 307 -341 434 -450 425 -366 962 -624 1516
-729 210 -40 280 -46 559 -46 346 0 555 27 847 109 1012 285 1796 1003 2162
1981 177 474 236 979 175 1505 -64 554 -306 1131 -664 1580 -98 123 -329 362
-450 464 -505 429 -1139 690 -1813 745 -566 47 -1146 -72 -1697 -349 -331
-166 -573 -342 -826 -601 -201 -207 -339 -385 -461 -595 -143 -247 -227 -431
-295 -649 -62 -196 -58 -184 -53 -150 20 126 25 708 25 3340 0 1898 -4 2957
-10 3027 -21 220 -105 394 -262 544 -195 187 -458 271 -733 235 -186 -25 -341
-99 -478 -230 -132 -126 -203 -241 -249 -406 l-23 -80 -3 -1222 -3 -1222 -100
74 c-649 483 -1443 780 -2289 856 -181 16 -575 13 -770 -5 -268 -26 -581 -85
-825 -155 -39 -11 -63 -15 -55 -8 344 270 718 466 1113 582 223 65 494 111
714 120 70 3 162 8 203 10 402 25 780 343 892 752 29 107 32 393 5 493 -50
184 -134 328 -268 460 -138 136 -300 228 -484 276 -82 21 -128 26 -255 29 -85
1 -175 1 -200 -1z m-4794 -4051 c-10 -36 -56 -291 -71 -398 -50 -351 -48 -267
-52 -2849 -2 -1331 -5 -2422 -8 -2424 -6 -6 -166 16 -280 39 -343 68 -681 211
-995 421 -203 135 -291 208 -475 392 -233 233 -380 437 -529 733 -210 417
-289 760 -290 1253 0 349 31 567 126 859 205 634 609 1169 1158 1536 141 94
434 239 595 295 250 86 563 150 783 158 37 2 43 -1 38 -15z m4703 -229 c446
-58 893 -233 1266 -498 281 -199 569 -504 750 -796 370 -597 494 -1306 349
-1993 -89 -421 -275 -822 -542 -1167 -147 -190 -407 -432 -610 -568 -168 -113
-388 -237 -440 -247 -11 -2 -71 -24 -134 -49 -422 -169 -916 -217 -1430 -140
-60 9 -108 19 -108 21 0 3 24 37 53 77 422 562 733 1289 851 1986 47 276 59
442 60 780 0 329 -8 444 -49 712 -96 627 -335 1252 -680 1780 l-63 96 51 8
c188 26 468 25 676 -2z m-2182 -1059 c224 -335 359 -678 434 -1100 30 -172 38
-544 15 -745 -68 -586 -303 -1126 -672 -1544 l-42 -47 -79 108 c-105 142 -170
240 -226 340 l-47 82 0 1222 0 1222 47 86 c99 184 215 353 346 509 l69 82 47
-62 c26 -35 75 -103 108 -153z"/>
</g>
</svg>
