<?xml version="1.0" standalone="no"?>
<!DOCTYPE svg PUBLIC "-//W3C//DTD SVG 20010904//EN"
 "http://www.w3.org/TR/2001/REC-SVG-20010904/DTD/svg10.dtd">
<svg version="1.0" xmlns="http://www.w3.org/2000/svg"
 width="555.000000pt" height="555.000000pt" viewBox="0 0 555.000000 555.000000"
 preserveAspectRatio="xMidYMid meet">
<metadata>
Created by potrace 1.14, written by Peter Selinger 2001-2017
</metadata>
<g transform="translate(0.000000,555.000000) scale(0.100000,-0.100000)"
fill="#000000" stroke="none">
<path d="M2605 3792 c-97 -33 -150 -91 -180 -193 -14 -49 -15 -133 -13 -695
l3 -639 24 -52 c29 -65 91 -124 157 -149 46 -18 84 -19 709 -19 l660 0 57 28
c71 35 120 90 144 165 18 53 19 97 18 687 0 733 2 712 -87 801 -87 87 -61 84
-801 84 -582 -1 -646 -2 -691 -18z m1290 -267 l25 -24 0 -570 0 -570 -24 -28
-24 -28 -549 -3 c-577 -3 -611 -1 -635 41 -10 17 -14 146 -16 547 -2 289 0
545 3 569 4 26 16 53 30 67 l24 24 571 0 571 0 24 -25z"/>
<path d="M3583 3312 c-35 -5 -68 -51 -227 -310 -82 -133 -152 -242 -157 -242
-4 0 -40 41 -79 90 -40 50 -80 95 -90 100 -10 6 -37 10 -60 10 -78 0 -126 -83
-89 -153 24 -45 238 -294 264 -305 40 -18 99 -15 128 8 14 11 70 89 123 173
54 83 145 224 202 312 115 175 130 211 111 256 -16 41 -75 69 -126 61z"/>
<path d="M1160 3513 c0 -148 -3 -598 -7 -1000 l-6 -733 156 0 157 0 0 1000 0
1000 -150 0 -150 0 0 -267z"/>
<path d="M1740 2983 c0 -439 -3 -889 -7 -1000 l-6 -203 156 0 157 0 0 1000 0
1000 -150 0 -150 0 0 -797z"/>
</g>
</svg>
