<svg width="1920" height="228" viewBox="0 0 1920 228" fill="none" xmlns="http://www.w3.org/2000/svg">
<rect width="117.86" height="117.86" rx="58.9298" transform="matrix(-0.965926 0.258819 0.258819 0.965926 1928.04 33)" fill="#2E2E2E"/>
<rect width="117.86" height="117.86" rx="58.9298" transform="matrix(-0.965926 0.258819 0.258819 0.965926 1958.54 146.844)" fill="#2E2E2E"/>
<rect width="117.86" height="117.86" transform="matrix(-0.965926 0.258819 0.258819 0.965926 1814.19 63.5044)" fill="#2E2E2E"/>
<rect width="117.86" height="117.86" transform="matrix(-0.965926 0.258819 0.258819 0.965926 1844.7 177.348)" fill="#2E2E2E"/>
<path d="M1700.35 94.0088L1693.38 95.8768C1637.36 110.886 1604.12 168.461 1619.13 224.475L1625.79 249.318C1640.8 305.332 1698.37 338.573 1754.39 323.564L1761.36 321.696L1700.35 94.0088Z" fill="#2E2E2E"/>
<path d="M1592.56 122.89L1585.59 124.758C1529.58 139.767 1496.33 197.342 1511.34 253.356L1518 278.199C1533.01 334.213 1590.58 367.454 1646.6 352.445L1653.57 350.577L1592.56 122.89Z" fill="#2E2E2E"/>
<path d="M1376.38 180.816L1383.35 178.948C1439.36 163.939 1496.94 197.18 1511.95 253.194L1518.61 278.037C1533.61 334.051 1500.37 391.626 1444.36 406.635L1437.39 408.503L1376.38 180.816Z" fill="#2E2E2E"/>
<path d="M1268.59 209.698L1275.56 207.83C1331.58 192.821 1389.15 226.062 1404.16 282.076L1410.82 306.919C1425.83 362.933 1392.59 420.508 1336.57 435.517L1329.6 437.385L1268.59 209.698Z" fill="#2E2E2E"/>
<path d="M964 291.312L1269.2 209.535L1330.21 437.222L1025.01 519L964 291.312Z" fill="#2E2E2E"/>
<line x1="-2.12941" y1="138.727" x2="513.675" y2="0.51714" stroke="#393939"/>
<line x1="164.871" y1="121.081" x2="473.001" y2="38.5172" stroke="#959595"/>
<line x1="338.871" y1="137.081" x2="647.001" y2="54.5172" stroke="#393939"/>
<line x1="136.965" y1="147.959" x2="281.854" y2="109.136" stroke="#959595" stroke-width="8"/>
<circle cx="416.633" cy="221.059" r="1" transform="rotate(-15 416.633 221.059)" fill="#4B4B4B"/>
<circle cx="418.704" cy="228.786" r="1" transform="rotate(-15 418.704 228.786)" fill="#4B4B4B"/>
<circle cx="401.179" cy="225.2" r="1" transform="rotate(-15 401.179 225.2)" fill="#4B4B4B"/>
<circle cx="393.451" cy="227.271" r="1" transform="rotate(-15 393.451 227.271)" fill="#4B4B4B"/>
<circle cx="408.906" cy="223.129" r="1" transform="rotate(-15 408.906 223.129)" fill="#4B4B4B"/>
<circle cx="424.361" cy="218.988" r="1" transform="rotate(-15 424.361 218.988)" fill="#4B4B4B"/>
<circle cx="426.432" cy="226.716" r="1" transform="rotate(-15 426.432 226.716)" fill="#4B4B4B"/>
<circle cx="486.18" cy="202.424" r="1" transform="rotate(-15 486.18 202.424)" fill="#4B4B4B"/>
<circle cx="490.321" cy="217.879" r="1" transform="rotate(-15 490.321 217.879)" fill="#4B4B4B"/>
<circle cx="488.251" cy="210.151" r="1" transform="rotate(-15 488.251 210.151)" fill="#4B4B4B"/>
<circle cx="492.392" cy="225.606" r="1" transform="rotate(-15 492.392 225.606)" fill="#4B4B4B"/>
<circle cx="455.271" cy="210.706" r="1" transform="rotate(-15 455.271 210.706)" fill="#4B4B4B"/>
<circle cx="459.412" cy="226.161" r="1" transform="rotate(-15 459.412 226.161)" fill="#4B4B4B"/>
<circle cx="457.341" cy="218.434" r="1" transform="rotate(-15 457.341 218.434)" fill="#4B4B4B"/>
<circle cx="517.09" cy="194.142" r="1" transform="rotate(-15 517.09 194.142)" fill="#4B4B4B"/>
<circle cx="521.231" cy="209.597" r="1" transform="rotate(-15 521.231 209.597)" fill="#4B4B4B"/>
<circle cx="525.372" cy="225.051" r="1" transform="rotate(-15 525.372 225.051)" fill="#4B4B4B"/>
<circle cx="519.16" cy="201.869" r="1" transform="rotate(-15 519.16 201.869)" fill="#4B4B4B"/>
<circle cx="523.301" cy="217.324" r="1" transform="rotate(-15 523.301 217.324)" fill="#4B4B4B"/>
<circle cx="439.816" cy="214.847" r="1" transform="rotate(-15 439.816 214.847)" fill="#4B4B4B"/>
<circle cx="441.886" cy="222.575" r="1" transform="rotate(-15 441.886 222.575)" fill="#4B4B4B"/>
<circle cx="501.635" cy="198.283" r="1" transform="rotate(-15 501.635 198.283)" fill="#4B4B4B"/>
<circle cx="505.776" cy="213.738" r="1" transform="rotate(-15 505.776 213.738)" fill="#4B4B4B"/>
<circle cx="509.917" cy="229.192" r="1" transform="rotate(-15 509.917 229.192)" fill="#4B4B4B"/>
<circle cx="503.706" cy="206.01" r="1" transform="rotate(-15 503.706 206.01)" fill="#4B4B4B"/>
<circle cx="507.847" cy="221.465" r="1" transform="rotate(-15 507.847 221.465)" fill="#4B4B4B"/>
<circle cx="470.725" cy="206.565" r="1" transform="rotate(-15 470.725 206.565)" fill="#4B4B4B"/>
<circle cx="474.867" cy="222.02" r="1" transform="rotate(-15 474.867 222.02)" fill="#4B4B4B"/>
<circle cx="472.796" cy="214.293" r="1" transform="rotate(-15 472.796 214.293)" fill="#4B4B4B"/>
<circle cx="432.088" cy="216.918" r="1" transform="rotate(-15 432.088 216.918)" fill="#4B4B4B"/>
<circle cx="434.159" cy="224.645" r="1" transform="rotate(-15 434.159 224.645)" fill="#4B4B4B"/>
<circle cx="493.908" cy="200.354" r="1" transform="rotate(-15 493.908 200.354)" fill="#4B4B4B"/>
<circle cx="498.049" cy="215.808" r="1" transform="rotate(-15 498.049 215.808)" fill="#4B4B4B"/>
<circle cx="495.978" cy="208.081" r="1" transform="rotate(-15 495.978 208.081)" fill="#4B4B4B"/>
<circle cx="500.119" cy="223.536" r="1" transform="rotate(-15 500.119 223.536)" fill="#4B4B4B"/>
<circle cx="462.998" cy="208.636" r="1" transform="rotate(-15 462.998 208.636)" fill="#4B4B4B"/>
<circle cx="467.139" cy="224.09" r="1" transform="rotate(-15 467.139 224.09)" fill="#4B4B4B"/>
<circle cx="465.068" cy="216.363" r="1" transform="rotate(-15 465.068 216.363)" fill="#4B4B4B"/>
<circle cx="447.543" cy="212.777" r="1" transform="rotate(-15 447.543 212.777)" fill="#4B4B4B"/>
<circle cx="451.684" cy="228.232" r="1" transform="rotate(-15 451.684 228.232)" fill="#4B4B4B"/>
<circle cx="449.614" cy="220.504" r="1" transform="rotate(-15 449.614 220.504)" fill="#4B4B4B"/>
<circle cx="509.362" cy="196.212" r="1" transform="rotate(-15 509.362 196.212)" fill="#4B4B4B"/>
<circle cx="513.504" cy="211.667" r="1" transform="rotate(-15 513.504 211.667)" fill="#4B4B4B"/>
<circle cx="517.645" cy="227.122" r="1" transform="rotate(-15 517.645 227.122)" fill="#4B4B4B"/>
<circle cx="511.433" cy="203.94" r="1" transform="rotate(-15 511.433 203.94)" fill="#4B4B4B"/>
<circle cx="515.574" cy="219.395" r="1" transform="rotate(-15 515.574 219.395)" fill="#4B4B4B"/>
<circle cx="478.453" cy="204.495" r="1" transform="rotate(-15 478.453 204.495)" fill="#4B4B4B"/>
<circle cx="482.594" cy="219.949" r="1" transform="rotate(-15 482.594 219.949)" fill="#4B4B4B"/>
<circle cx="480.523" cy="212.222" r="1" transform="rotate(-15 480.523 212.222)" fill="#4B4B4B"/>
<circle cx="484.664" cy="227.677" r="1" transform="rotate(-15 484.664 227.677)" fill="#4B4B4B"/>
<circle cx="524.817" cy="192.071" r="1" transform="rotate(-15 524.817 192.071)" fill="#4B4B4B"/>
<circle cx="528.958" cy="207.526" r="1" transform="rotate(-15 528.958 207.526)" fill="#4B4B4B"/>
<circle cx="533.099" cy="222.981" r="1" transform="rotate(-15 533.099 222.981)" fill="#4B4B4B"/>
<circle cx="526.888" cy="199.799" r="1" transform="rotate(-15 526.888 199.799)" fill="#4B4B4B"/>
<circle cx="531.029" cy="215.253" r="1" transform="rotate(-15 531.029 215.253)" fill="#4B4B4B"/>
<circle cx="586.637" cy="175.507" r="1" transform="rotate(-15 586.637 175.507)" fill="#4B4B4B"/>
<circle cx="590.778" cy="190.962" r="1" transform="rotate(-15 590.778 190.962)" fill="#4B4B4B"/>
<circle cx="594.919" cy="206.417" r="1" transform="rotate(-15 594.919 206.417)" fill="#4B4B4B"/>
<circle cx="599.06" cy="221.871" r="1" transform="rotate(-15 599.06 221.871)" fill="#4B4B4B"/>
<circle cx="588.707" cy="183.234" r="1" transform="rotate(-15 588.707 183.234)" fill="#4B4B4B"/>
<circle cx="592.848" cy="198.689" r="1" transform="rotate(-15 592.848 198.689)" fill="#4B4B4B"/>
<circle cx="596.989" cy="214.144" r="1" transform="rotate(-15 596.989 214.144)" fill="#4B4B4B"/>
<circle cx="555.727" cy="183.789" r="1" transform="rotate(-15 555.727 183.789)" fill="#4B4B4B"/>
<circle cx="559.868" cy="199.244" r="1" transform="rotate(-15 559.868 199.244)" fill="#4B4B4B"/>
<circle cx="564.009" cy="214.699" r="1" transform="rotate(-15 564.009 214.699)" fill="#4B4B4B"/>
<circle cx="557.797" cy="191.517" r="1" transform="rotate(-15 557.797 191.517)" fill="#4B4B4B"/>
<circle cx="561.939" cy="206.971" r="1" transform="rotate(-15 561.939 206.971)" fill="#4B4B4B"/>
<circle cx="566.08" cy="222.426" r="1" transform="rotate(-15 566.08 222.426)" fill="#4B4B4B"/>
<circle cx="617.546" cy="167.225" r="1" transform="rotate(-15 617.546 167.225)" fill="#4B4B4B"/>
<circle cx="621.687" cy="182.68" r="1" transform="rotate(-15 621.687 182.68)" fill="#4B4B4B"/>
<circle cx="625.828" cy="198.134" r="1" transform="rotate(-15 625.828 198.134)" fill="#4B4B4B"/>
<circle cx="629.969" cy="213.589" r="1" transform="rotate(-15 629.969 213.589)" fill="#4B4B4B"/>
<circle cx="634.11" cy="229.044" r="1" transform="rotate(-15 634.11 229.044)" fill="#4B4B4B"/>
<circle cx="619.617" cy="174.952" r="1" transform="rotate(-15 619.617 174.952)" fill="#4B4B4B"/>
<circle cx="623.758" cy="190.407" r="1" transform="rotate(-15 623.758 190.407)" fill="#4B4B4B"/>
<circle cx="627.899" cy="205.862" r="1" transform="rotate(-15 627.899 205.862)" fill="#4B4B4B"/>
<circle cx="632.04" cy="221.316" r="1" transform="rotate(-15 632.04 221.316)" fill="#4B4B4B"/>
<circle cx="540.272" cy="187.93" r="1" transform="rotate(-15 540.272 187.93)" fill="#4B4B4B"/>
<circle cx="544.413" cy="203.385" r="1" transform="rotate(-15 544.413 203.385)" fill="#4B4B4B"/>
<circle cx="548.554" cy="218.84" r="1" transform="rotate(-15 548.554 218.84)" fill="#4B4B4B"/>
<circle cx="542.343" cy="195.658" r="1" transform="rotate(-15 542.343 195.658)" fill="#4B4B4B"/>
<circle cx="546.484" cy="211.112" r="1" transform="rotate(-15 546.484 211.112)" fill="#4B4B4B"/>
<circle cx="550.625" cy="226.567" r="1" transform="rotate(-15 550.625 226.567)" fill="#4B4B4B"/>
<circle cx="602.091" cy="171.366" r="1" transform="rotate(-15 602.091 171.366)" fill="#4B4B4B"/>
<circle cx="606.233" cy="186.821" r="1" transform="rotate(-15 606.233 186.821)" fill="#4B4B4B"/>
<circle cx="610.374" cy="202.275" r="1" transform="rotate(-15 610.374 202.275)" fill="#4B4B4B"/>
<circle cx="614.515" cy="217.73" r="1" transform="rotate(-15 614.515 217.73)" fill="#4B4B4B"/>
<circle cx="604.162" cy="179.093" r="1" transform="rotate(-15 604.162 179.093)" fill="#4B4B4B"/>
<circle cx="608.303" cy="194.548" r="1" transform="rotate(-15 608.303 194.548)" fill="#4B4B4B"/>
<circle cx="612.444" cy="210.003" r="1" transform="rotate(-15 612.444 210.003)" fill="#4B4B4B"/>
<circle cx="616.585" cy="225.458" r="1" transform="rotate(-15 616.585 225.458)" fill="#4B4B4B"/>
<circle cx="571.182" cy="179.648" r="1" transform="rotate(-15 571.182 179.648)" fill="#4B4B4B"/>
<circle cx="575.323" cy="195.103" r="1" transform="rotate(-15 575.323 195.103)" fill="#4B4B4B"/>
<circle cx="579.464" cy="210.558" r="1" transform="rotate(-15 579.464 210.558)" fill="#4B4B4B"/>
<circle cx="583.605" cy="226.012" r="1" transform="rotate(-15 583.605 226.012)" fill="#4B4B4B"/>
<circle cx="573.252" cy="187.376" r="1" transform="rotate(-15 573.252 187.376)" fill="#4B4B4B"/>
<circle cx="577.393" cy="202.83" r="1" transform="rotate(-15 577.393 202.83)" fill="#4B4B4B"/>
<circle cx="581.535" cy="218.285" r="1" transform="rotate(-15 581.535 218.285)" fill="#4B4B4B"/>
<circle cx="532.545" cy="190.001" r="1" transform="rotate(-15 532.545 190.001)" fill="#4B4B4B"/>
<circle cx="536.686" cy="205.456" r="1" transform="rotate(-15 536.686 205.456)" fill="#4B4B4B"/>
<circle cx="540.827" cy="220.91" r="1" transform="rotate(-15 540.827 220.91)" fill="#4B4B4B"/>
<circle cx="534.615" cy="197.728" r="1" transform="rotate(-15 534.615 197.728)" fill="#4B4B4B"/>
<circle cx="538.756" cy="213.183" r="1" transform="rotate(-15 538.756 213.183)" fill="#4B4B4B"/>
<circle cx="542.897" cy="228.638" r="1" transform="rotate(-15 542.897 228.638)" fill="#4B4B4B"/>
<circle cx="594.364" cy="173.437" r="1" transform="rotate(-15 594.364 173.437)" fill="#4B4B4B"/>
<circle cx="598.505" cy="188.891" r="1" transform="rotate(-15 598.505 188.891)" fill="#4B4B4B"/>
<circle cx="602.646" cy="204.346" r="1" transform="rotate(-15 602.646 204.346)" fill="#4B4B4B"/>
<circle cx="606.787" cy="219.801" r="1" transform="rotate(-15 606.787 219.801)" fill="#4B4B4B"/>
<circle cx="596.434" cy="181.164" r="1" transform="rotate(-15 596.434 181.164)" fill="#4B4B4B"/>
<circle cx="600.576" cy="196.619" r="1" transform="rotate(-15 600.576 196.619)" fill="#4B4B4B"/>
<circle cx="604.717" cy="212.073" r="1" transform="rotate(-15 604.717 212.073)" fill="#4B4B4B"/>
<circle cx="608.858" cy="227.528" r="1" transform="rotate(-15 608.858 227.528)" fill="#4B4B4B"/>
<circle cx="563.454" cy="181.719" r="1" transform="rotate(-15 563.454 181.719)" fill="#4B4B4B"/>
<circle cx="567.595" cy="197.173" r="1" transform="rotate(-15 567.595 197.173)" fill="#4B4B4B"/>
<circle cx="571.736" cy="212.628" r="1" transform="rotate(-15 571.736 212.628)" fill="#4B4B4B"/>
<circle cx="575.878" cy="228.083" r="1" transform="rotate(-15 575.878 228.083)" fill="#4B4B4B"/>
<circle cx="565.525" cy="189.446" r="1" transform="rotate(-15 565.525 189.446)" fill="#4B4B4B"/>
<circle cx="569.666" cy="204.901" r="1" transform="rotate(-15 569.666 204.901)" fill="#4B4B4B"/>
<circle cx="573.807" cy="220.356" r="1" transform="rotate(-15 573.807 220.356)" fill="#4B4B4B"/>
<circle cx="547.999" cy="185.86" r="1" transform="rotate(-15 547.999 185.86)" fill="#4B4B4B"/>
<circle cx="552.141" cy="201.315" r="1" transform="rotate(-15 552.141 201.315)" fill="#4B4B4B"/>
<circle cx="556.282" cy="216.769" r="1" transform="rotate(-15 556.282 216.769)" fill="#4B4B4B"/>
<circle cx="550.07" cy="193.587" r="1" transform="rotate(-15 550.07 193.587)" fill="#4B4B4B"/>
<circle cx="554.211" cy="209.042" r="1" transform="rotate(-15 554.211 209.042)" fill="#4B4B4B"/>
<circle cx="558.352" cy="224.497" r="1" transform="rotate(-15 558.352 224.497)" fill="#4B4B4B"/>
<circle cx="609.819" cy="169.295" r="1" transform="rotate(-15 609.819 169.295)" fill="#4B4B4B"/>
<circle cx="613.96" cy="184.75" r="1" transform="rotate(-15 613.96 184.75)" fill="#4B4B4B"/>
<circle cx="618.101" cy="200.205" r="1" transform="rotate(-15 618.101 200.205)" fill="#4B4B4B"/>
<circle cx="622.242" cy="215.66" r="1" transform="rotate(-15 622.242 215.66)" fill="#4B4B4B"/>
<circle cx="611.889" cy="177.023" r="1" transform="rotate(-15 611.889 177.023)" fill="#4B4B4B"/>
<circle cx="616.03" cy="192.478" r="1" transform="rotate(-15 616.03 192.478)" fill="#4B4B4B"/>
<circle cx="620.172" cy="207.932" r="1" transform="rotate(-15 620.172 207.932)" fill="#4B4B4B"/>
<circle cx="624.313" cy="223.387" r="1" transform="rotate(-15 624.313 223.387)" fill="#4B4B4B"/>
<circle cx="578.909" cy="177.578" r="1" transform="rotate(-15 578.909 177.578)" fill="#4B4B4B"/>
<circle cx="583.05" cy="193.032" r="1" transform="rotate(-15 583.05 193.032)" fill="#4B4B4B"/>
<circle cx="587.191" cy="208.487" r="1" transform="rotate(-15 587.191 208.487)" fill="#4B4B4B"/>
<circle cx="591.332" cy="223.942" r="1" transform="rotate(-15 591.332 223.942)" fill="#4B4B4B"/>
<circle cx="580.98" cy="185.305" r="1" transform="rotate(-15 580.98 185.305)" fill="#4B4B4B"/>
<circle cx="585.121" cy="200.76" r="1" transform="rotate(-15 585.121 200.76)" fill="#4B4B4B"/>
<circle cx="589.262" cy="216.214" r="1" transform="rotate(-15 589.262 216.214)" fill="#4B4B4B"/>
<circle cx="432" cy="130" r="16" fill="#393939"/>
</svg>
