<?xml version="1.0" standalone="no"?>
<!DOCTYPE svg PUBLIC "-//W3C//DTD SVG 20010904//EN"
 "http://www.w3.org/TR/2001/REC-SVG-20010904/DTD/svg10.dtd">
<svg version="1.0" xmlns="http://www.w3.org/2000/svg"
 width="1772.000000pt" height="1772.000000pt" viewBox="0 0 1772.000000 1772.000000"
 preserveAspectRatio="xMidYMid meet">
<metadata>
Created by potrace 1.14, written by Peter Selinger 2001-2017
</metadata>
<g transform="translate(0.000000,1772.000000) scale(0.100000,-0.100000)"
fill="#000000" stroke="none">
<path d="M5870 14727 c0 -507 -3 -1283 -7 -1724 l-6 -803 2991 0 2992 0 0
1725 0 1725 -2985 -1 -2985 0 0 -922z"/>
<path d="M8525 11024 c-22 -2 -92 -9 -155 -15 -460 -42 -940 -158 -1369 -330
-191 -77 -507 -235 -686 -344 -343 -207 -598 -407 -886 -695 -113 -113 -240
-246 -282 -297 -584 -709 -910 -1474 -999 -2338 -19 -194 -17 -738 5 -935 37
-328 98 -613 194 -895 546 -1607 2021 -2800 3779 -3054 280 -41 363 -46 729
-46 387 1 516 10 818 61 1419 239 2639 1072 3332 2274 410 710 612 1551 567
2353 -19 330 -55 566 -132 862 -250 964 -841 1832 -1665 2445 -699 521 -1487
829 -2390 935 -132 16 -753 29 -860 19z m545 -3229 c265 -41 486 -153 679
-346 243 -244 361 -536 361 -894 0 -347 -114 -634 -347 -876 -426 -441 -1112
-515 -1624 -174 -275 183 -463 462 -535 795 -26 118 -26 371 -1 490 52 244
163 454 335 632 98 101 157 149 272 218 128 77 297 136 455 159 97 14 302 12
405 -4z"/>
</g>
</svg>
