<svg width="525" height="315" viewBox="0 0 525 315" fill="none" xmlns="http://www.w3.org/2000/svg">
<path d="M58.9062 277.62C60.3885 277.259 61.443 276.707 62.0696 275.965C62.6917 275.206 62.8906 274.408 62.6663 273.571C62.5093 272.985 62.1816 272.499 61.6831 272.112C61.1847 271.725 60.5708 271.477 59.8416 271.367C59.1124 271.257 58.3376 271.312 57.5172 271.532C56.6466 271.765 55.9129 272.142 55.3162 272.66C54.7362 273.175 54.3299 273.768 54.0973 274.44C53.8815 275.108 53.8701 275.802 54.063 276.522L56.6497 275.829C56.578 275.561 56.5776 275.292 56.6488 275.022C56.7322 274.73 56.896 274.471 57.1402 274.244C57.38 274 57.7092 273.823 58.1277 273.71C58.63 273.576 59.0632 273.585 59.4274 273.739C59.7916 273.893 60.0253 274.162 60.1285 274.547C60.2316 274.932 60.1684 275.299 59.9388 275.648C59.7048 275.98 59.2529 276.235 58.5832 276.415L58.9062 277.62ZM60.697 283.6C61.6011 283.358 62.3834 282.996 63.0438 282.514C63.6997 282.015 64.1652 281.442 64.4402 280.794C64.7275 280.125 64.7702 279.414 64.5683 278.66C64.2812 277.589 63.616 276.914 62.5728 276.638C61.5419 276.34 60.2524 276.416 58.7043 276.867L59.061 278.198C59.58 278.059 60.0332 278.009 60.4207 278.049C60.8249 278.084 61.1528 278.203 61.4043 278.404C61.6512 278.589 61.8241 278.866 61.9228 279.234C62.008 279.553 61.9922 279.862 61.8753 280.162C61.7752 280.458 61.5756 280.718 61.2767 280.942C60.9777 281.165 60.5938 281.34 60.125 281.466C59.4051 281.659 58.8116 281.62 58.3446 281.351C57.8943 281.076 57.541 280.696 57.2847 280.208L54.6226 280.921C55.0751 282.074 55.8292 282.913 56.8849 283.438C57.953 283.941 59.2236 283.995 60.697 283.6ZM69.1341 277.41C69.0264 277.008 69.0349 276.638 69.1595 276.299C69.2797 275.944 69.5121 275.64 69.8568 275.386C70.1971 275.115 70.6518 274.904 71.2211 274.751C71.9242 274.563 72.5684 274.489 73.1535 274.529C73.7341 274.553 74.3356 274.688 74.9578 274.934L74.5742 273.503C74.3954 273.371 74.101 273.244 73.6911 273.12C73.2812 272.997 72.7859 272.923 72.2053 272.899C71.6414 272.871 71.0246 272.946 70.3549 273.126C69.3503 273.395 68.5117 273.781 67.8391 274.284C67.1831 274.783 66.7305 275.371 66.4812 276.048C66.2319 276.725 66.2127 277.457 66.4236 278.244C66.6344 279.031 66.9874 279.645 67.4826 280.086C67.99 280.507 68.5809 280.77 69.2555 280.877C69.9467 280.978 70.6691 280.928 71.4225 280.727C72.2261 280.511 72.9186 280.182 73.4997 279.739C74.0764 279.28 74.4878 278.739 74.7338 278.117C74.9753 277.478 74.9974 276.79 74.8 276.053L74.0415 274.83C74.2255 275.516 74.2373 276.096 74.0771 276.57C73.9169 277.043 73.6271 277.435 73.2076 277.745C72.7882 278.055 72.2854 278.288 71.6994 278.445C71.3144 278.548 70.9387 278.586 70.5724 278.559C70.2184 278.51 69.9096 278.395 69.6459 278.215C69.3989 278.03 69.2283 277.761 69.1341 277.41ZM67.1904 272.466C67.3432 272.3 67.5645 272.088 67.8545 271.831C68.1568 271.552 68.516 271.286 68.9322 271.031C69.3651 270.771 69.8578 270.567 70.4103 270.419C71.0465 270.249 71.6227 270.256 72.1387 270.441C72.667 270.604 73.003 270.954 73.1465 271.49L75.273 279.426L77.9351 278.712L75.7279 270.475C75.5215 269.705 75.1373 269.108 74.5751 268.684C74.0297 268.256 73.3612 268.005 72.5695 267.93C71.7733 267.838 70.898 267.92 69.9437 268.176C68.9056 268.454 68.0252 268.851 67.3023 269.368C66.5794 269.885 66.001 270.372 65.5672 270.829L67.1904 272.466ZM92.1192 274.912L95.0073 274.138L88.4869 262.561L88.0396 266.718L92.1192 274.912ZM85.836 274.065L87.4306 277.002L89.9291 266.939L88.4869 262.561L85.836 274.065ZM87.4306 277.002L87.3429 273.661L79.3956 264.997L80.3355 269.509L87.4306 277.002ZM79.512 278.29L82.4001 277.516L81.8365 268.381L79.3956 264.997L79.512 278.29ZM96.2385 268.29L106.385 265.571C106.361 265.416 106.333 265.28 106.302 265.163C106.266 265.029 106.235 264.912 106.208 264.811C105.88 263.589 105.366 262.605 104.663 261.86C103.974 261.094 103.131 260.593 102.134 260.358C101.15 260.101 100.056 260.134 98.8502 260.457C97.762 260.749 96.8531 261.208 96.1236 261.834C95.3941 262.46 94.8664 263.202 94.5402 264.061C94.2309 264.916 94.1203 265.843 94.2086 266.842C94.229 267.052 94.2577 267.259 94.2948 267.465C94.3319 267.67 94.3796 267.882 94.4379 268.099C94.7474 269.255 95.2683 270.228 96.0006 271.018C96.7284 271.792 97.6055 272.32 98.632 272.601C99.6751 272.878 100.783 272.859 101.955 272.545C103.01 272.263 103.855 271.902 104.491 271.462C105.139 271.001 105.651 270.469 106.028 269.866C106.405 269.263 106.7 268.591 106.915 267.852L104.305 267.555C104.186 267.982 104.006 268.38 103.764 268.75C103.518 269.103 103.205 269.411 102.827 269.674C102.466 269.932 102.017 270.133 101.481 270.277C100.845 270.447 100.24 270.466 99.666 270.332C99.1042 270.178 98.6047 269.854 98.1675 269.361C97.7471 268.864 97.4247 268.196 97.2004 267.359L97.0622 266.643C96.8828 265.973 96.862 265.359 96.9997 264.802C97.1498 264.223 97.4339 263.744 97.8522 263.362C98.2659 262.964 98.7742 262.685 99.3769 262.523C99.9629 262.366 100.488 262.351 100.953 262.478C101.413 262.588 101.808 262.823 102.138 263.183C102.48 263.522 102.756 263.95 102.967 264.468L95.7338 266.406L96.2385 268.29ZM105.7 258.891L106.339 261.277L113.647 259.318L113.008 256.933L105.7 258.891ZM108.17 258.767L111.131 269.818L113.793 269.104L110.832 258.054L108.17 258.767ZM114.761 256.463L117.856 268.016L120.518 267.302L117.423 255.75L114.761 256.463ZM121.667 254.612L117.973 260.717L125.29 266.024L128.605 265.135L121.288 259.828L125.007 253.718L121.667 254.612ZM138.441 252.81L137.658 249.386L129.944 262.085L130.727 265.509L138.441 252.81ZM130.058 252.364L127.396 253.077L130.727 265.509L132.561 261.707L130.058 252.364ZM137.658 249.386L135.817 253.163L138.327 262.53L140.989 261.817L137.658 249.386ZM156.724 249.391L161.714 255.456L164.464 254.37L155.445 244.62L152.535 257.566L155.435 257.139L156.724 249.391ZM163.548 255.772L164.154 258.033L166.791 257.326L165.559 252.73L150.742 256.701L151.973 261.296L154.736 260.556L154.13 258.296L163.548 255.772ZM176.872 239.82L166.299 242.653L168.217 249.811C168.419 250.564 168.372 251.124 168.075 251.491C167.795 251.853 167.404 252.101 166.902 252.236L167.561 254.697C168.65 254.405 169.482 254.03 170.059 253.57C170.648 253.089 171.006 252.518 171.134 251.856C171.273 251.172 171.222 250.378 170.98 249.474L169.634 244.451L174.883 243.045L177.306 252.086L179.968 251.373L176.872 239.82ZM186.095 249.731L188.378 242.982L185.616 243.722L183.182 250.512L186.095 249.731ZM193.579 247.726L190.484 236.173L187.746 236.907L190.842 248.459L193.579 247.726ZM190.128 241.679L186.738 242.587C186.319 242.699 185.954 242.743 185.643 242.719C185.331 242.695 185.073 242.602 184.869 242.442C184.681 242.277 184.542 242.027 184.453 241.692C184.367 241.374 184.365 241.097 184.445 240.86C184.542 240.618 184.719 240.409 184.977 240.233C185.234 240.056 185.573 239.912 185.991 239.799L189.382 238.891L188.776 236.631L185.185 237.593C184.398 237.804 183.692 238.118 183.069 238.537C182.462 238.951 182.027 239.471 181.764 240.098C181.497 240.708 181.478 241.439 181.707 242.293C181.935 243.147 182.322 243.788 182.868 244.216C183.409 244.628 184.048 244.869 184.785 244.941C185.534 244.991 186.302 244.911 187.089 244.7L190.68 243.738L190.128 241.679ZM206.968 234.044C207.621 233.869 208.248 233.863 208.847 234.025C209.447 234.187 209.972 234.504 210.421 234.976C210.871 235.448 211.192 236.044 211.385 236.764C211.578 237.484 211.597 238.16 211.444 238.793C211.286 239.41 210.99 239.947 210.557 240.404C210.118 240.844 209.573 241.152 208.92 241.327C208.267 241.502 207.64 241.508 207.041 241.346C206.436 241.167 205.903 240.852 205.442 240.402C204.992 239.93 204.671 239.334 204.478 238.614L201.186 237.881C201.631 239.539 202.279 240.854 203.132 241.828C203.985 242.802 204.965 243.445 206.072 243.759C207.191 244.051 208.354 244.036 209.559 243.713C210.781 243.385 211.783 242.839 212.565 242.073C213.364 241.303 213.91 240.394 214.203 239.346C214.492 238.282 214.482 237.172 214.172 236.017C213.858 234.845 213.312 233.878 212.534 233.118C211.773 232.353 210.862 231.834 209.802 231.562C208.759 231.285 207.643 231.306 206.455 231.625L206.968 234.044ZM203.273 238.937L204.478 238.614C204.321 238.028 204.283 237.482 204.362 236.976C204.459 236.466 204.634 236.015 204.888 235.624C205.138 235.216 205.452 234.881 205.83 234.618C206.204 234.339 206.583 234.147 206.968 234.044L206.455 231.625C205.735 231.817 205.12 232.135 204.61 232.576C204.096 233.001 203.691 233.532 203.394 234.167C203.115 234.798 202.959 235.522 202.926 236.338C202.906 237.133 203.022 238 203.273 238.937ZM201.186 237.881L204.194 238.556L203.236 235.986C203.012 235.149 202.901 234.3 202.903 233.438C202.922 232.571 203.131 231.744 203.53 230.955C203.945 230.162 204.614 229.444 205.537 228.802C206.372 228.237 207.087 227.624 207.682 226.962C208.288 226.279 208.732 225.559 209.014 224.802C209.295 224.044 209.379 223.286 209.266 222.527L206.629 223.234C206.673 223.868 206.47 224.514 206.018 225.174C205.567 225.833 204.828 226.524 203.801 227.248C202.609 228.088 201.75 229.036 201.226 230.092C200.718 231.143 200.475 232.312 200.496 233.598C200.535 234.88 200.765 236.307 201.186 237.881ZM226.445 226.537L229.54 238.09L232.278 237.356L229.182 225.804L226.445 226.537ZM215.244 229.539L218.339 241.091L221.077 240.358L217.981 228.805L215.244 229.539ZM218.821 235.256L222.136 234.367C222.739 234.206 223.235 234.216 223.625 234.399C224.015 234.582 224.277 234.924 224.412 235.426C224.497 235.744 224.496 236.041 224.408 236.316C224.337 236.586 224.175 236.818 223.921 237.011C223.685 237.2 223.366 237.349 222.964 237.456L219.649 238.345L220.248 240.58L223.839 239.617C224.643 239.402 225.325 239.067 225.885 238.612C226.445 238.157 226.832 237.595 227.048 236.927C227.264 236.259 227.262 235.515 227.042 234.695C226.71 233.456 226.058 232.662 225.085 232.312C224.124 231.941 223.05 231.915 221.861 232.234L218.269 233.196L218.821 235.256ZM236.013 230.165C235.82 229.445 235.808 228.766 235.979 228.128C236.149 227.49 236.459 226.941 236.909 226.479C237.377 226.013 237.945 225.69 238.615 225.511C239.151 225.367 239.692 225.312 240.239 225.344C240.786 225.377 241.293 225.493 241.759 225.691C242.237 225.868 242.62 226.124 242.907 226.46L242.099 223.446C241.594 223.169 240.967 223.005 240.218 222.955C239.469 222.904 238.684 222.989 237.863 223.209C236.691 223.523 235.698 224.067 234.883 224.842C234.08 225.595 233.523 226.498 233.213 227.55C232.902 228.602 232.907 229.723 233.225 230.912C233.539 232.084 234.096 233.056 234.895 233.829C235.69 234.585 236.626 235.097 237.702 235.365C238.791 235.611 239.922 235.577 241.094 235.263C241.914 235.043 242.636 234.724 243.26 234.306C243.883 233.888 244.342 233.424 244.636 232.914L243.836 229.926C243.75 230.343 243.555 230.755 243.251 231.159C242.942 231.547 242.561 231.9 242.108 232.219C241.668 232.516 241.163 232.742 240.593 232.894C239.924 233.074 239.27 233.078 238.632 232.908C238.011 232.734 237.468 232.413 237.001 231.945C236.535 231.478 236.206 230.885 236.013 230.165ZM243.214 222.044L243.853 224.43L251.162 222.472L250.522 220.086L243.214 222.044ZM245.684 221.92L248.645 232.971L251.307 232.257L248.346 221.207L245.684 221.92ZM259.588 235.96L255.012 218.883L252.275 219.616L256.851 236.694L259.588 235.96ZM266.128 222.095C265.779 220.789 265.225 219.762 264.468 219.014C263.707 218.249 262.834 217.738 261.851 217.481C260.867 217.224 259.872 217.231 258.868 217.5C257.897 217.76 257.11 218.24 256.508 218.94C255.923 219.635 255.55 220.488 255.391 221.5C255.231 222.512 255.319 223.646 255.656 224.901C255.988 226.14 256.478 227.166 257.127 227.979C257.771 228.776 258.52 229.329 259.375 229.638C260.241 229.926 261.16 229.94 262.131 229.68C263.136 229.411 264.002 228.928 264.731 228.23C265.454 227.516 265.955 226.637 266.231 225.594C266.504 224.534 266.469 223.368 266.128 222.095ZM263.316 222.849C263.522 223.619 263.538 224.315 263.363 224.936C263.189 225.557 262.88 226.079 262.437 226.503C261.995 226.926 261.455 227.223 260.819 227.394C260.283 227.537 259.728 227.543 259.154 227.409C258.576 227.259 258.047 226.961 257.569 226.515C257.107 226.065 256.771 225.446 256.56 224.659C256.349 223.872 256.331 223.168 256.506 222.547C256.697 221.922 257.008 221.408 257.438 221.005C257.864 220.586 258.345 220.305 258.881 220.161C259.517 219.991 260.133 219.978 260.728 220.124C261.319 220.252 261.847 220.55 262.314 221.018C262.775 221.468 263.109 222.079 263.316 222.849ZM267.833 221.638C268.147 222.81 268.695 223.785 269.478 224.562C270.272 225.318 271.208 225.83 272.285 226.098C273.374 226.345 274.504 226.311 275.676 225.997C276.865 225.678 277.861 225.142 278.664 224.389C279.462 223.619 280.008 222.71 280.302 221.662C280.608 220.593 280.603 219.473 280.289 218.301C279.971 217.112 279.414 216.14 278.62 215.383C277.842 214.623 276.916 214.117 275.844 213.866C274.768 213.598 273.635 213.624 272.446 213.942C271.274 214.256 270.281 214.801 269.465 215.575C268.662 216.329 268.106 217.232 267.795 218.284C267.502 219.331 267.514 220.45 267.833 221.638ZM270.621 220.891C270.428 220.172 270.408 219.495 270.561 218.862C270.714 218.228 271.01 217.692 271.449 217.251C271.887 216.811 272.432 216.503 273.085 216.328C273.738 216.153 274.365 216.147 274.965 216.309C275.564 216.471 276.089 216.788 276.538 217.26C276.988 217.732 277.309 218.328 277.502 219.048C277.695 219.768 277.714 220.444 277.561 221.077C277.403 221.694 277.108 222.231 276.674 222.688C276.236 223.128 275.69 223.436 275.037 223.611C274.384 223.786 273.758 223.792 273.158 223.63C272.554 223.451 272.029 223.134 271.584 222.679C271.135 222.207 270.813 221.611 270.621 220.891ZM292.485 211.534L291.702 208.11L283.988 220.809L284.771 224.233L292.485 211.534ZM284.102 211.088L281.44 211.801L284.771 224.233L286.606 220.43L284.102 211.088ZM291.702 208.11L289.861 211.887L292.371 221.254L295.033 220.541L291.702 208.11ZM281.19 205.543C281.351 206.146 281.657 206.683 282.106 207.155C282.556 207.626 283.127 207.949 283.819 208.122C284.512 208.296 285.293 208.266 286.164 208.032C287.051 207.795 287.751 207.428 288.264 206.931C288.777 206.435 289.111 205.87 289.264 205.237C289.417 204.604 289.413 203.986 289.252 203.383L287.192 203.935C287.26 204.186 287.262 204.463 287.2 204.767C287.15 205.05 287.001 205.332 286.754 205.613C286.518 205.874 286.158 206.069 285.673 206.199C285.204 206.325 284.794 206.336 284.443 206.232C284.105 206.108 283.835 205.938 283.634 205.723C283.445 205.486 283.317 205.242 283.249 204.991L281.19 205.543ZM299.579 216.362L299.111 223.459L301.269 223.473L302.525 216.407L299.579 216.362ZM311.611 209.908C311.925 211.08 312.473 212.055 313.256 212.832C314.05 213.588 314.986 214.1 316.063 214.368C317.152 214.614 318.282 214.581 319.454 214.267C320.643 213.948 321.639 213.412 322.442 212.659C323.24 211.888 323.786 210.979 324.08 209.932C324.386 208.863 324.381 207.742 324.067 206.57C323.749 205.382 323.192 204.409 322.397 203.653C321.619 202.893 320.694 202.387 319.622 202.136C318.546 201.868 317.413 201.893 316.224 202.212C315.052 202.526 314.058 203.07 313.243 203.845C312.44 204.599 311.884 205.501 311.573 206.554C311.28 207.601 311.292 208.719 311.611 209.908ZM314.398 209.161C314.206 208.441 314.186 207.765 314.339 207.131C314.492 206.498 314.788 205.961 315.227 205.521C315.665 205.08 316.21 204.773 316.863 204.598C317.516 204.423 318.143 204.416 318.742 204.579C319.342 204.741 319.867 205.058 320.316 205.53C320.766 206.002 321.087 206.597 321.28 207.317C321.473 208.037 321.492 208.714 321.339 209.347C321.181 209.964 320.886 210.501 320.452 210.958C320.013 211.398 319.468 211.706 318.815 211.881C318.162 212.056 317.536 212.062 316.936 211.9C316.331 211.721 315.807 211.404 315.362 210.949C314.913 210.477 314.591 209.881 314.398 209.161ZM331.19 200.759C331.843 200.584 332.469 200.578 333.069 200.74C333.669 200.902 334.193 201.219 334.643 201.691C335.092 202.163 335.413 202.759 335.606 203.479C335.799 204.199 335.819 204.875 335.666 205.508C335.508 206.125 335.212 206.662 334.778 207.119C334.34 207.559 333.794 207.867 333.141 208.042C332.488 208.217 331.862 208.223 331.262 208.061C330.658 207.882 330.125 207.567 329.663 207.117C329.214 206.645 328.893 206.049 328.7 205.329L325.408 204.596C325.852 206.254 326.501 207.569 327.354 208.543C328.207 209.517 329.187 210.16 330.294 210.474C331.413 210.766 332.575 210.751 333.781 210.428C335.003 210.1 336.005 209.554 336.787 208.788C337.585 208.018 338.131 207.109 338.425 206.061C338.714 204.997 338.703 203.887 338.394 202.732C338.08 201.56 337.534 200.593 336.756 199.833C335.994 199.068 335.084 198.549 334.024 198.277C332.981 198 331.865 198.021 330.676 198.34L331.19 200.759ZM327.494 205.652L328.7 205.329C328.543 204.743 328.504 204.197 328.584 203.691C328.68 203.181 328.856 202.73 329.11 202.339C329.359 201.931 329.673 201.596 330.052 201.333C330.425 201.054 330.805 200.862 331.19 200.759L330.676 198.34C329.956 198.532 329.341 198.85 328.832 199.291C328.317 199.716 327.912 200.247 327.616 200.882C327.336 201.513 327.18 202.237 327.148 203.053C327.128 203.848 327.243 204.715 327.494 205.652ZM325.408 204.596L328.415 205.271L327.457 202.701C327.233 201.864 327.122 201.015 327.124 200.153C327.143 199.286 327.352 198.458 327.751 197.67C328.167 196.876 328.836 196.159 329.758 195.517C330.594 194.952 331.309 194.339 331.903 193.677C332.51 192.994 332.954 192.274 333.235 191.517C333.517 190.759 333.601 190.001 333.487 189.242L330.85 189.949C330.895 190.583 330.691 191.229 330.24 191.889C329.788 192.548 329.049 193.239 328.023 193.963C326.83 194.803 325.972 195.751 325.447 196.807C324.939 197.858 324.696 199.027 324.718 200.313C324.756 201.595 324.986 203.022 325.408 204.596ZM345.228 201.385L348.543 200.497C349.162 200.331 349.659 200.341 350.032 200.528C350.422 200.711 350.684 201.054 350.818 201.556C350.904 201.874 350.902 202.17 350.814 202.445C350.743 202.715 350.581 202.947 350.328 203.141C350.091 203.33 349.772 203.478 349.37 203.586L346.055 204.474L346.654 206.709L350.246 205.747C351.049 205.532 351.731 205.196 352.291 204.741C352.851 204.286 353.239 203.725 353.455 203.057C353.67 202.389 353.668 201.645 353.449 200.824C353.117 199.585 352.464 198.791 351.491 198.442C350.531 198.071 349.456 198.045 348.267 198.363L344.676 199.326L345.228 201.385ZM342.39 198.027L344.846 207.194L347.458 206.494L344.362 194.941L337.858 196.684L338.497 199.07L342.39 198.027ZM356.797 198.473L366.943 195.755C366.919 195.6 366.892 195.463 366.861 195.346C366.825 195.212 366.793 195.095 366.766 194.995C366.439 193.772 365.924 192.789 365.222 192.044C364.532 191.278 363.689 190.777 362.693 190.541C361.709 190.284 360.614 190.318 359.409 190.641C358.32 190.932 357.412 191.391 356.682 192.017C355.953 192.643 355.425 193.386 355.099 194.245C354.789 195.099 354.679 196.026 354.767 197.026C354.787 197.235 354.816 197.443 354.853 197.648C354.89 197.854 354.938 198.065 354.996 198.283C355.306 199.438 355.827 200.411 356.559 201.202C357.287 201.976 358.164 202.504 359.19 202.785C360.234 203.062 361.341 203.043 362.513 202.729C363.568 202.446 364.413 202.085 365.049 201.646C365.697 201.185 366.21 200.653 366.586 200.049C366.963 199.446 367.259 198.775 367.473 198.035L364.864 197.739C364.745 198.165 364.564 198.564 364.322 198.933C364.076 199.287 363.764 199.595 363.386 199.857C363.024 200.116 362.576 200.317 362.04 200.46C361.404 200.631 360.799 200.649 360.224 200.516C359.663 200.361 359.163 200.038 358.726 199.545C358.306 199.047 357.983 198.38 357.759 197.543L357.621 196.826C357.441 196.156 357.42 195.543 357.558 194.986C357.708 194.407 357.992 193.927 358.411 193.546C358.824 193.148 359.333 192.868 359.935 192.707C360.521 192.55 361.047 192.535 361.511 192.661C361.971 192.771 362.366 193.006 362.696 193.367C363.038 193.706 363.315 194.134 363.525 194.652L356.292 196.59L356.797 198.473ZM359.591 187.2C359.712 187.652 359.984 188.001 360.409 188.246C360.829 188.474 361.274 188.526 361.742 188.4C362.228 188.27 362.587 188.003 362.82 187.6C363.065 187.176 363.127 186.737 363.006 186.285C362.88 185.816 362.608 185.468 362.187 185.239C361.784 185.007 361.34 184.955 360.854 185.085C360.385 185.211 360.026 185.478 359.777 185.885C359.527 186.293 359.465 186.732 359.591 187.2ZM354.116 188.667C354.237 189.119 354.51 189.468 354.934 189.713C355.371 189.937 355.824 189.986 356.293 189.861C356.761 189.735 357.121 189.468 357.37 189.06C357.615 188.636 357.677 188.197 357.556 187.745C357.431 187.277 357.158 186.928 356.738 186.7C356.318 186.471 355.873 186.42 355.404 186.545C354.936 186.671 354.568 186.94 354.302 187.352C354.052 187.76 353.99 188.199 354.116 188.667ZM381.961 197.249L384.849 196.475L378.329 184.898L377.882 189.055L381.961 197.249ZM375.678 196.402L377.272 199.34L379.771 189.276L378.329 184.898L375.678 196.402ZM377.272 199.34L377.185 195.998L369.237 187.334L370.177 191.847L377.272 199.34ZM369.354 200.627L372.242 199.853L371.678 190.718L369.237 187.334L369.354 200.627ZM386.554 190.688L395.395 188.32L394.789 186.059L385.949 188.428L386.554 190.688ZM392.175 182.13L395.27 193.683L397.932 192.969L394.837 181.417L392.175 182.13ZM383.611 184.425L386.706 195.977L389.369 195.264L386.273 183.711L383.611 184.425ZM398.971 186.5C399.285 187.672 399.833 188.647 400.615 189.424C401.41 190.18 402.346 190.692 403.422 190.96C404.511 191.206 405.642 191.173 406.814 190.859C408.003 190.54 408.998 190.004 409.801 189.251C410.6 188.48 411.146 187.571 411.439 186.524C411.745 185.455 411.741 184.334 411.427 183.162C411.109 181.974 410.552 181.001 409.757 180.245C408.979 179.485 408.054 178.979 406.982 178.728C405.905 178.46 404.773 178.485 403.584 178.804C402.412 179.118 401.418 179.662 400.603 180.437C399.8 181.191 399.243 182.093 398.933 183.146C398.639 184.193 398.652 185.311 398.971 186.5ZM401.758 185.753C401.565 185.033 401.545 184.357 401.699 183.723C401.852 183.09 402.148 182.553 402.586 182.113C403.024 181.672 403.57 181.365 404.223 181.19C404.876 181.015 405.502 181.008 406.102 181.171C406.702 181.333 407.227 181.65 407.676 182.122C408.125 182.594 408.447 183.189 408.639 183.909C408.832 184.629 408.852 185.306 408.699 185.939C408.541 186.556 408.245 187.093 407.811 187.55C407.373 187.99 406.828 188.298 406.175 188.473C405.522 188.648 404.895 188.654 404.295 188.492C403.691 188.313 403.167 187.996 402.722 187.541C402.272 187.069 401.951 186.473 401.758 185.753ZM423.623 176.395L422.84 172.971L415.126 185.671L415.909 189.095L423.623 176.395ZM415.24 175.95L412.578 176.663L415.909 189.095L417.743 185.292L415.24 175.95ZM422.84 172.971L420.999 176.749L423.509 186.116L426.171 185.403L422.84 172.971ZM412.328 170.405C412.489 171.007 412.795 171.545 413.244 172.016C413.693 172.488 414.264 172.811 414.957 172.984C415.649 173.157 416.431 173.127 417.301 172.894C418.189 172.656 418.889 172.289 419.402 171.793C419.915 171.297 420.248 170.732 420.401 170.099C420.555 169.465 420.551 168.847 420.389 168.245L418.33 168.796C418.397 169.048 418.4 169.325 418.338 169.629C418.288 169.911 418.139 170.193 417.891 170.475C417.656 170.735 417.296 170.931 416.81 171.061C416.341 171.186 415.932 171.198 415.581 171.094C415.242 170.969 414.973 170.8 414.771 170.584C414.582 170.348 414.454 170.104 414.387 169.853L412.328 170.405ZM430.716 181.224L430.249 188.321L432.406 188.335L433.662 181.269L430.716 181.224ZM69.4545 294.485L66.5412 295.265L65.3541 305.3L66.6551 305.033L60.5139 296.88L57.3997 297.715L64.803 306.659L63.6081 314.355L66.4962 313.581L69.4545 294.485ZM77.3307 296.546L82.3205 302.612L85.0709 301.525L76.0521 291.775L73.1417 304.721L76.042 304.294L77.3307 296.546ZM84.1548 302.928L84.7604 305.188L87.3974 304.481L86.166 299.885L71.3487 303.856L72.5801 308.452L75.3427 307.711L74.737 305.451L84.1548 302.928ZM87.2232 295.915C87.5372 297.087 88.0855 298.061 88.868 298.838C89.6627 299.595 90.5984 300.106 91.6751 300.374C92.764 300.621 93.8945 300.587 95.0665 300.273C96.2552 299.955 97.2511 299.419 98.0541 298.665C98.8526 297.895 99.3986 296.986 99.6921 295.938C99.9979 294.869 99.9938 293.749 99.6797 292.577C99.3612 291.388 98.8046 290.416 98.0098 289.66C97.2318 288.899 96.3067 288.393 95.2345 288.142C94.1578 287.874 93.0251 287.9 91.8364 288.218C90.6644 288.532 89.6708 289.077 88.8555 289.851C88.0525 290.605 87.4959 291.508 87.1856 292.56C86.8921 293.608 86.9046 294.726 87.2232 295.915ZM90.0108 295.168C89.8179 294.448 89.7981 293.771 89.9514 293.138C90.1048 292.505 90.4006 291.968 90.8388 291.527C91.2771 291.087 91.8227 290.779 92.4757 290.604C93.1287 290.429 93.755 290.423 94.3548 290.585C94.9546 290.747 95.4792 291.064 95.9286 291.536C96.378 292.008 96.6992 292.604 96.8921 293.324C97.085 294.044 97.1048 294.72 96.9514 295.354C96.7936 295.97 96.4978 296.507 96.064 296.964C95.6258 297.405 95.0802 297.712 94.4272 297.887C93.7742 298.062 93.1479 298.069 92.5481 297.906C91.9438 297.727 91.4192 297.41 90.9743 296.955C90.5249 296.483 90.2037 295.888 90.0108 295.168ZM106.802 286.765C107.455 286.59 108.081 286.584 108.681 286.746C109.281 286.909 109.806 287.226 110.255 287.697C110.704 288.169 111.026 288.765 111.218 289.485C111.411 290.205 111.431 290.882 111.278 291.515C111.12 292.131 110.824 292.668 110.39 293.125C109.952 293.566 109.407 293.874 108.754 294.048C108.101 294.223 107.474 294.23 106.874 294.067C106.27 293.888 105.737 293.574 105.276 293.123C104.826 292.651 104.505 292.056 104.312 291.336L101.02 290.603C101.464 292.26 102.113 293.576 102.966 294.549C103.819 295.523 104.799 296.167 105.906 296.48C107.025 296.773 108.187 296.757 109.393 296.434C110.615 296.107 111.617 295.56 112.399 294.794C113.197 294.024 113.743 293.115 114.037 292.068C114.326 291.003 114.316 289.893 114.006 288.738C113.692 287.566 113.146 286.6 112.368 285.839C111.607 285.074 110.696 284.556 109.636 284.283C108.593 284.007 107.477 284.027 106.288 284.346L106.802 286.765ZM103.107 291.659L104.312 291.336C104.155 290.75 104.116 290.204 104.196 289.698C104.293 289.187 104.468 288.737 104.722 288.346C104.972 287.938 105.286 287.602 105.664 287.34C106.038 287.06 106.417 286.869 106.802 286.765L106.288 284.346C105.568 284.539 104.954 284.856 104.444 285.298C103.93 285.723 103.524 286.253 103.228 286.889C102.949 287.52 102.793 288.243 102.76 289.06C102.74 289.855 102.855 290.721 103.107 291.659ZM101.02 290.603L104.027 291.277L103.07 288.708C102.845 287.87 102.734 287.021 102.737 286.159C102.756 285.292 102.965 284.465 103.363 283.676C103.779 282.883 104.448 282.165 105.371 281.523C106.206 280.958 106.921 280.345 107.515 279.683C108.122 279.001 108.566 278.28 108.848 277.523C109.129 276.766 109.213 276.007 109.1 275.248L106.463 275.955C106.507 276.589 106.303 277.236 105.852 277.895C105.4 278.554 104.662 279.246 103.635 279.969C102.443 280.809 101.584 281.757 101.059 282.813C100.552 283.864 100.308 285.033 100.33 286.319C100.368 287.601 100.599 289.029 101.02 290.603ZM118.021 288.524L126.861 286.155L126.255 283.895L117.415 286.263L118.021 288.524ZM123.641 279.965L126.737 291.518L129.399 290.805L126.304 279.252L123.641 279.965ZM115.078 282.26L118.173 293.813L120.835 293.099L117.74 281.547L115.078 282.26ZM130.437 284.335C130.751 285.507 131.299 286.482 132.082 287.259C132.877 288.015 133.812 288.527 134.889 288.795C135.978 289.042 137.108 289.008 138.28 288.694C139.469 288.375 140.465 287.839 141.268 287.086C142.066 286.316 142.612 285.407 142.906 284.359C143.212 283.29 143.208 282.17 142.894 280.998C142.575 279.809 142.018 278.837 141.224 278.08C140.446 277.32 139.521 276.814 138.448 276.563C137.372 276.295 136.239 276.321 135.05 276.639C133.878 276.953 132.885 277.498 132.069 278.272C131.266 279.026 130.71 279.929 130.399 280.981C130.106 282.028 130.118 283.147 130.437 284.335ZM133.225 283.588C133.032 282.869 133.012 282.192 133.165 281.559C133.319 280.925 133.614 280.389 134.053 279.948C134.491 279.508 135.037 279.2 135.69 279.025C136.343 278.85 136.969 278.844 137.569 279.006C138.168 279.168 138.693 279.485 139.142 279.957C139.592 280.429 139.913 281.025 140.106 281.745C140.299 282.465 140.319 283.141 140.165 283.774C140.007 284.391 139.712 284.928 139.278 285.385C138.84 285.825 138.294 286.133 137.641 286.308C136.988 286.483 136.362 286.489 135.762 286.327C135.158 286.148 134.633 285.831 134.188 285.376C133.739 284.904 133.418 284.308 133.225 283.588ZM155.089 274.231L154.307 270.807L146.593 283.506L147.375 286.93L155.089 274.231ZM146.707 273.785L144.044 274.498L147.375 286.93L149.21 283.127L146.707 273.785ZM154.307 270.807L152.465 274.584L154.976 283.951L157.638 283.238L154.307 270.807ZM143.794 268.24C143.956 268.843 144.261 269.38 144.71 269.852C145.16 270.323 145.731 270.646 146.423 270.819C147.116 270.993 147.897 270.963 148.768 270.729C149.655 270.492 150.355 270.125 150.868 269.628C151.381 269.132 151.715 268.567 151.868 267.934C152.021 267.301 152.017 266.683 151.856 266.08L149.796 266.632C149.864 266.883 149.866 267.16 149.804 267.464C149.754 267.747 149.605 268.029 149.358 268.31C149.123 268.571 148.762 268.766 148.277 268.896C147.808 269.022 147.398 269.033 147.047 268.929C146.709 268.805 146.439 268.635 146.238 268.42C146.049 268.183 145.921 267.939 145.853 267.688L143.794 268.24ZM172.862 285.08L168.286 268.003L165.549 268.736L170.124 285.814L172.862 285.08ZM179.402 271.215C179.052 269.909 178.499 268.882 177.742 268.134C176.981 267.369 176.108 266.858 175.124 266.601C174.14 266.344 173.146 266.351 172.141 266.62C171.17 266.88 170.384 267.36 169.782 268.06C169.196 268.755 168.824 269.608 168.664 270.62C168.505 271.632 168.593 272.766 168.93 274.021C169.262 275.26 169.752 276.286 170.4 277.1C171.045 277.896 171.794 278.449 172.648 278.758C173.515 279.046 174.434 279.06 175.405 278.8C176.41 278.531 177.276 278.048 178.004 277.35C178.728 276.636 179.228 275.757 179.505 274.714C179.777 273.654 179.743 272.488 179.402 271.215ZM176.589 271.969C176.796 272.739 176.812 273.435 176.637 274.056C176.463 274.677 176.154 275.199 175.711 275.623C175.268 276.046 174.729 276.344 174.093 276.514C173.557 276.658 173.002 276.663 172.428 276.529C171.849 276.379 171.321 276.081 170.843 275.635C170.381 275.185 170.045 274.566 169.834 273.779C169.623 272.992 169.605 272.288 169.779 271.667C169.971 271.042 170.281 270.528 170.712 270.125C171.138 269.706 171.619 269.425 172.155 269.281C172.791 269.111 173.407 269.098 174.002 269.244C174.593 269.373 175.121 269.671 175.587 270.138C176.049 270.588 176.383 271.199 176.589 271.969ZM184.326 272.426C184.218 272.024 184.227 271.654 184.351 271.316C184.472 270.961 184.704 270.656 185.049 270.402C185.389 270.132 185.844 269.92 186.413 269.767C187.116 269.579 187.76 269.505 188.345 269.546C188.926 269.57 189.527 269.704 190.15 269.951L189.766 268.519C189.587 268.387 189.293 268.26 188.883 268.137C188.473 268.013 187.978 267.939 187.397 267.916C186.833 267.887 186.216 267.963 185.547 268.142C184.542 268.411 183.704 268.798 183.031 269.301C182.375 269.8 181.922 270.387 181.673 271.064C181.424 271.741 181.405 272.473 181.615 273.26C181.826 274.047 182.179 274.661 182.674 275.103C183.182 275.523 183.773 275.786 184.447 275.893C185.139 275.995 185.861 275.945 186.614 275.743C187.418 275.528 188.11 275.198 188.692 274.756C189.268 274.296 189.68 273.755 189.926 273.133C190.167 272.494 190.189 271.806 189.992 271.069L189.233 269.846C189.417 270.533 189.429 271.113 189.269 271.586C189.109 272.06 188.819 272.451 188.399 272.761C187.98 273.071 187.477 273.304 186.891 273.461C186.506 273.565 186.131 273.602 185.764 273.575C185.41 273.526 185.101 273.412 184.838 273.231C184.591 273.046 184.42 272.778 184.326 272.426ZM182.382 267.483C182.535 267.316 182.756 267.104 183.046 266.847C183.349 266.569 183.708 266.302 184.124 266.047C184.557 265.787 185.05 265.584 185.602 265.436C186.238 265.265 186.814 265.272 187.331 265.457C187.859 265.621 188.195 265.97 188.338 266.506L190.465 274.442L193.127 273.729L190.92 265.491C190.713 264.721 190.329 264.124 189.767 263.701C189.222 263.272 188.553 263.021 187.761 262.946C186.965 262.854 186.09 262.936 185.136 263.192C184.097 263.47 183.217 263.868 182.494 264.384C181.771 264.901 181.193 265.388 180.759 265.845L182.382 267.483ZM199.288 261.984C199.941 261.809 200.567 261.803 201.167 261.965C201.766 262.127 202.291 262.444 202.74 262.916C203.19 263.388 203.511 263.984 203.704 264.704C203.897 265.424 203.917 266.1 203.763 266.733C203.606 267.35 203.31 267.887 202.876 268.344C202.438 268.784 201.892 269.092 201.239 269.267C200.586 269.442 199.96 269.448 199.36 269.286C198.756 269.107 198.223 268.792 197.761 268.342C197.312 267.87 196.991 267.274 196.798 266.554L193.506 265.821C193.95 267.479 194.598 268.794 195.452 269.768C196.305 270.742 197.285 271.385 198.391 271.699C199.511 271.991 200.673 271.976 201.878 271.653C203.101 271.325 204.103 270.779 204.884 270.013C205.683 269.243 206.229 268.334 206.522 267.286C206.811 266.222 206.801 265.112 206.492 263.957C206.178 262.785 205.632 261.818 204.854 261.058C204.092 260.293 203.182 259.774 202.122 259.502C201.079 259.225 199.963 259.246 198.774 259.564L199.288 261.984ZM195.592 266.877L196.798 266.554C196.641 265.968 196.602 265.422 196.682 264.916C196.778 264.406 196.954 263.955 197.208 263.564C197.457 263.156 197.771 262.821 198.149 262.558C198.523 262.279 198.903 262.087 199.288 261.984L198.774 259.564C198.054 259.757 197.439 260.075 196.929 260.516C196.415 260.941 196.01 261.471 195.714 262.107C195.434 262.738 195.278 263.462 195.246 264.278C195.225 265.073 195.341 265.94 195.592 266.877ZM193.506 265.821L196.513 266.496L195.555 263.926C195.331 263.089 195.22 262.24 195.222 261.378C195.241 260.511 195.45 259.683 195.849 258.895C196.264 258.101 196.933 257.384 197.856 256.742C198.692 256.177 199.407 255.564 200.001 254.902C200.608 254.219 201.052 253.499 201.333 252.742C201.615 251.984 201.699 251.226 201.585 250.467L198.948 251.173C198.992 251.808 198.789 252.454 198.337 253.114C197.886 253.773 197.147 254.464 196.121 255.188C194.928 256.028 194.07 256.976 193.545 258.032C193.037 259.083 192.794 260.252 192.816 261.538C192.854 262.82 193.084 264.247 193.506 265.821ZM208.232 263.49C208.546 264.662 209.094 265.637 209.877 266.414C210.671 267.17 211.607 267.682 212.684 267.95C213.773 268.197 214.903 268.163 216.075 267.849C217.264 267.53 218.26 266.994 219.063 266.241C219.861 265.471 220.407 264.562 220.701 263.514C221.007 262.445 221.002 261.325 220.688 260.153C220.37 258.964 219.813 257.992 219.018 257.235C218.24 256.475 217.315 255.969 216.243 255.718C215.166 255.45 214.034 255.476 212.845 255.794C211.673 256.108 210.679 256.653 209.864 257.427C209.061 258.181 208.505 259.084 208.194 260.136C207.901 261.183 207.913 262.302 208.232 263.49ZM211.019 262.743C210.827 262.023 210.807 261.347 210.96 260.714C211.113 260.08 211.409 259.544 211.847 259.103C212.286 258.663 212.831 258.355 213.484 258.18C214.137 258.005 214.764 257.999 215.363 258.161C215.963 258.323 216.488 258.64 216.937 259.112C217.387 259.584 217.708 260.18 217.901 260.9C218.094 261.62 218.113 262.296 217.96 262.929C217.802 263.546 217.506 264.083 217.073 264.54C216.634 264.98 216.089 265.288 215.436 265.463C214.783 265.638 214.156 265.644 213.557 265.482C212.952 265.303 212.428 264.986 211.983 264.531C211.533 264.059 211.212 263.463 211.019 262.743ZM220.131 254.111L220.771 256.497L228.079 254.539L227.44 252.153L220.131 254.111ZM222.602 253.987L225.563 265.038L228.225 264.324L225.264 253.274L222.602 253.987ZM240.493 248.655L243.589 260.207L246.326 259.474L243.231 247.921L240.493 248.655ZM229.293 251.656L232.388 263.209L235.125 262.475L232.03 250.923L229.293 251.656ZM232.87 257.373L236.185 256.485C236.788 256.323 237.284 256.334 237.674 256.517C238.064 256.699 238.326 257.042 238.461 257.544C238.546 257.862 238.545 258.158 238.457 258.433C238.386 258.704 238.224 258.935 237.97 259.129C237.734 259.318 237.415 259.466 237.013 259.574L233.698 260.462L234.297 262.697L237.888 261.735C238.692 261.52 239.373 261.184 239.933 260.729C240.493 260.274 240.881 259.713 241.097 259.045C241.313 258.377 241.311 257.633 241.091 256.812C240.759 255.573 240.107 254.779 239.134 254.43C238.173 254.059 237.098 254.033 235.91 254.351L232.318 255.314L232.87 257.373Z" fill="#272727"/>
<path d="M54.9446 199.98C53.4469 194.391 53.2122 189.187 54.2406 184.371C55.3349 179.439 57.5393 175.225 60.8538 171.728C64.2585 168.207 68.6654 165.722 74.0746 164.272C79.5739 162.799 84.6331 162.748 89.252 164.119C93.871 165.49 97.8421 168.049 101.165 171.797C104.464 175.455 106.863 180.078 108.36 185.667C109.858 191.257 110.06 196.517 108.965 201.449C107.937 206.266 105.721 210.435 102.316 213.956C99.0014 217.453 94.6846 219.914 89.3656 221.339C83.9564 222.789 78.8973 222.84 74.1882 221.493C69.5692 220.121 65.5651 217.619 62.176 213.986C58.8528 210.238 56.4423 205.57 54.9446 199.98ZM30.7385 206.466C32.6952 213.769 35.7119 220.159 39.7887 225.637C43.9556 231.091 48.8968 235.468 54.6123 238.768C60.4179 242.044 66.7692 244.11 73.6662 244.968C80.5389 245.735 87.7167 245.116 95.1994 243.111C102.592 241.13 109.072 238.089 114.641 233.988C120.185 229.797 124.607 224.844 127.907 219.129C131.297 213.389 133.387 207.128 134.179 200.345C135.061 193.538 134.523 186.484 132.566 179.181C130.61 171.879 127.56 165.546 123.417 160.182C119.275 154.818 114.312 150.543 108.531 147.358C102.749 144.172 96.4344 142.241 89.5858 141.564C82.8031 140.772 75.7606 141.355 68.4582 143.312C61.246 145.244 54.8557 148.261 49.2873 152.362C43.6948 156.373 39.1915 161.203 35.7774 166.852C32.3632 172.502 30.1582 178.697 29.1622 185.438C28.2564 192.154 28.7819 199.164 30.7385 206.466ZM171.936 173.415L210.063 209.145L236.838 201.97L195.736 167.038L171.936 173.415ZM134.528 127.927L159.892 222.588L182.746 216.464L157.382 121.804L134.528 127.927ZM154.044 143.424L172.571 138.46C175.636 137.639 178.383 137.434 180.812 137.846C183.332 138.234 185.431 139.217 187.111 140.796C188.766 142.285 189.944 144.337 190.644 146.952C191.345 149.566 191.363 151.977 190.698 154.184C190.009 156.301 188.671 158.158 186.682 159.753C184.76 161.234 182.267 162.386 179.201 163.207L160.675 168.171L165.422 185.886L185.571 180.487C193.685 178.313 200.096 175.194 204.805 171.131C209.513 167.067 212.649 162.361 214.212 157.015C215.75 151.578 215.71 145.839 214.092 139.799C212.449 133.669 209.615 128.679 205.588 124.83C201.537 120.891 196.457 118.339 190.347 117.174C184.237 116.009 177.126 116.513 169.012 118.687L148.863 124.086L154.044 143.424ZM222.084 104.467L247.448 199.127L270.978 192.823L245.614 98.1619L222.084 104.467ZM281.256 190.069C291.623 187.291 300.074 182.949 306.608 177.043C313.142 171.138 317.541 164.113 319.804 155.97C322.042 147.737 321.869 138.797 319.285 129.15C316.676 119.414 312.356 111.585 306.325 105.665C300.293 99.7438 292.972 95.8597 284.36 94.0123C275.749 92.1648 266.259 92.6301 255.891 95.4081L237.23 100.408L242.665 120.693L260.515 115.91C264.121 114.944 267.713 114.464 271.29 114.472C274.958 114.456 278.331 115.146 281.411 116.543C284.581 117.916 287.404 120.155 289.878 123.261C292.329 126.276 294.243 130.353 295.62 135.492C296.996 140.63 297.39 145.163 296.799 149.09C296.185 152.926 294.848 156.231 292.789 159.005C290.82 161.755 288.244 164.04 285.06 165.859C281.965 167.655 278.615 169.036 275.009 170.002L257.159 174.785L262.594 195.069L281.256 190.069ZM352.74 120.186C351.243 114.597 351.008 109.393 352.036 104.576C353.131 99.6451 355.335 95.431 358.649 91.934C362.054 88.4128 366.461 85.9275 371.87 84.4781C377.37 83.0046 382.429 82.9534 387.048 84.3247C391.667 85.696 395.638 88.2554 398.961 92.003C402.26 95.6604 404.658 100.284 406.156 105.873C407.654 111.463 407.855 116.723 406.761 121.654C405.733 126.471 403.516 130.64 400.112 134.162C396.797 137.659 392.48 140.12 387.161 141.545C381.752 142.994 376.693 143.046 371.984 141.698C367.365 140.327 363.361 137.825 359.972 134.192C356.648 130.444 354.238 125.776 352.74 120.186ZM328.534 126.672C330.491 133.974 333.508 140.365 337.584 145.843C341.751 151.297 346.693 155.674 352.408 158.974C358.214 162.249 364.565 164.316 371.462 165.173C378.335 165.941 385.512 165.322 392.995 163.317C400.388 161.336 406.868 158.295 412.436 154.194C417.981 150.003 422.403 145.05 425.702 139.335C429.092 133.595 431.183 127.334 431.975 120.551C432.856 113.744 432.319 106.69 430.362 99.3874C428.405 92.085 425.356 85.7518 421.213 80.3879C417.07 75.0241 412.108 70.7494 406.327 67.5638C400.545 64.3783 394.23 62.447 387.381 61.7698C380.599 60.9783 373.556 61.5609 366.254 63.5176C359.042 65.4501 352.651 68.4668 347.083 72.5677C341.491 76.5785 336.987 81.4086 333.573 87.0581C330.159 92.7076 327.954 98.9027 326.958 105.644C326.052 112.36 326.578 119.37 328.534 126.672Z" fill="#272727"/>
<rect x="314" y="19.1528" width="74" height="39" transform="rotate(-15 314 19.1528)" fill="#272727"/>
<path d="M495.491 123.642C511.59 95.7567 502.036 60.1 474.151 44.0005" stroke="#393939" stroke-dasharray="10 10"/>
<circle cx="380" cy="114" r="23.5" stroke="#272727" stroke-width="17"/>
</svg>
