<svg width="1032" height="534" viewBox="0 0 1032 534" fill="none" xmlns="http://www.w3.org/2000/svg">
<path d="M234.569 438.82L306.241 419.615L300.733 399.06L229.061 418.265L234.569 438.82ZM277.024 368.454L302.388 463.115L325.242 456.991L299.877 362.33L277.024 368.454ZM213.466 385.484L238.83 480.145L261.684 474.021L236.319 379.361L213.466 385.484ZM355.122 429.418L405.157 416.011L398.995 398.965L352.07 411.538L355.122 429.418ZM368.709 381.136L390.322 408.246L391.068 414.278L408.696 434.629L434.66 427.672L357.802 340.432L334.996 454.377L360.825 447.457L366.068 419.963L363.645 415.249L368.709 381.136ZM491.913 361.603C490.343 355.743 490.309 350.389 491.813 345.542C493.316 340.694 495.896 336.621 499.554 333.322C503.301 329.999 507.744 327.649 512.883 326.272C517.391 325.064 521.515 324.587 525.254 324.841C528.97 325.005 532.446 325.716 535.682 326.975C538.894 328.143 541.826 329.532 544.48 331.14L537.885 306.528C533.301 304.568 528.526 303.335 523.56 302.83C518.593 302.325 512.639 303.002 505.697 304.862C498.124 306.891 491.451 309.935 485.679 313.994C479.906 318.054 475.312 322.908 471.898 328.557C468.484 334.207 466.324 340.39 465.418 347.106C464.512 353.823 465.05 360.878 467.031 368.27C469.012 375.663 472.073 382.041 476.216 387.405C480.359 392.769 485.321 397.043 491.103 400.229C496.884 403.414 503.289 405.322 510.318 405.951C517.347 406.579 524.648 405.879 532.221 403.85C539.163 401.99 544.658 399.6 548.707 396.679C552.755 393.758 556.274 390.303 559.263 386.313L552.669 361.702C551.175 364.421 549.329 367.09 547.132 369.707C544.935 372.325 542.28 374.679 539.168 376.769C536.057 378.859 532.247 380.508 527.739 381.716C522.601 383.093 517.578 383.279 512.671 382.275C507.854 381.247 503.582 379.009 499.857 375.563C496.107 372.026 493.459 367.373 491.913 361.603ZM584.371 337.119L602.086 332.372C608.667 330.609 614.195 328.161 618.67 325.03C623.212 321.784 626.454 318.016 628.396 313.727C630.429 309.414 630.782 304.778 629.453 299.82C628.004 294.411 625.32 290.347 621.403 287.628C617.552 284.795 612.873 283.198 607.365 282.838C601.924 282.364 595.912 283.008 589.331 284.771L554.577 294.084L579.941 388.744L616.994 378.816C624.477 376.811 630.726 374.17 635.743 370.894C640.735 367.527 644.199 363.507 646.135 358.833C648.162 354.135 648.329 348.631 646.638 342.32C645.358 337.542 643.189 333.775 640.132 331.019C637.14 328.149 633.597 326.103 629.501 324.881C625.381 323.57 621.025 322.998 616.432 323.166C611.838 323.333 607.243 324.033 602.645 325.265L582.631 330.628L585.965 343.069L603.409 338.395C605.663 337.791 607.752 337.473 609.676 337.44C611.666 337.294 613.503 337.478 615.187 337.993C616.871 338.508 618.312 339.378 619.51 340.603C620.707 341.828 621.572 343.432 622.104 345.416C622.925 348.481 622.856 351.108 621.897 353.298C621.003 355.373 619.493 357.13 617.367 358.57C615.216 359.919 612.653 360.992 609.678 361.79L598.048 364.906L582.178 305.675L591.644 303.139C595.61 302.076 598.893 302.066 601.491 303.109C604.09 304.152 605.824 306.296 606.694 309.542C607.273 311.705 607.273 313.686 606.692 315.485C606.087 317.193 604.946 318.706 603.27 320.025C601.685 321.319 599.585 322.317 596.97 323.017L581.689 327.112L584.371 337.119ZM702.205 310.038L678.405 316.416L660.276 367.219L687.052 360.044L702.205 310.038ZM711.857 251.941L689.004 258.064L714.368 352.725L737.222 346.601L711.857 251.941ZM702.705 275.119L697.523 255.781L677.374 261.18C669.35 263.33 662.939 266.449 658.14 270.537C653.432 274.601 650.308 279.351 648.769 284.788C647.207 290.135 647.247 295.873 648.889 302.004C650.508 308.044 653.342 313.034 657.393 316.973C661.42 320.822 666.488 323.329 672.598 324.494C678.798 325.635 685.91 325.13 693.933 322.98L714.082 317.581L709.336 299.866L690.809 304.83C687.834 305.628 685.099 305.877 682.604 305.58C680.084 305.192 677.997 304.254 676.342 302.765C674.662 301.185 673.472 299.089 672.772 296.474C672.071 293.86 672.065 291.494 672.754 289.377C673.419 287.17 674.745 285.268 676.734 283.673C678.722 282.077 681.203 280.881 684.178 280.083L702.705 275.119ZM776.253 287.009C782.113 285.439 787.479 283.469 792.352 281.101C797.225 278.732 801.334 276.037 804.679 273.015C808 269.902 810.332 266.524 811.674 262.879C813.107 259.21 813.279 255.347 812.192 251.29C810.888 246.422 808.307 242.378 804.449 239.161C800.592 235.943 795.644 233.886 789.607 232.992C783.57 232.097 776.584 232.713 768.651 234.839C760.717 236.964 754.351 240.071 749.552 244.159C744.82 248.133 741.66 252.748 740.073 258.005C738.462 263.171 738.405 268.549 739.903 274.138L760.863 268.522C760.26 266.268 760.371 264.161 761.199 262.2C762.002 260.149 763.455 258.358 765.557 256.829C767.635 255.209 770.252 253.976 773.407 253.131C776.473 252.31 779.163 252.072 781.478 252.418C783.769 252.674 785.66 253.423 787.153 254.666C788.645 255.908 789.669 257.566 790.225 259.64C790.829 261.894 790.606 264.127 789.557 266.341C788.597 268.531 786.763 270.52 784.054 272.309C781.435 274.074 777.916 275.548 773.499 276.731L776.253 287.009ZM795.607 333.276C804.171 330.981 810.979 327.901 816.031 324.035C821.149 320.055 824.594 315.605 826.368 310.685C828.118 305.675 828.256 300.42 826.782 294.92C825.067 288.52 821.695 283.867 816.665 280.963C811.701 277.945 805.552 276.453 798.217 276.485C790.949 276.404 782.987 277.523 774.332 279.842L777.448 291.471C782.677 290.07 787.071 289.521 790.631 289.823C794.256 290.011 797.146 290.88 799.301 292.428C801.455 293.977 802.894 296.103 803.619 298.808C804.706 302.865 803.97 306.251 801.413 308.965C798.855 311.68 795.006 313.725 789.868 315.102C786.532 315.996 783.379 316.309 780.409 316.042C777.438 315.775 774.909 314.811 772.821 313.148C770.733 311.485 769.188 309.145 768.186 306.128L745.738 312.143C746.849 316.29 748.736 320.084 751.397 323.526C754.059 326.968 757.468 329.775 761.625 331.946C765.872 334.093 770.794 335.335 776.392 335.671C782.08 335.983 788.485 335.184 795.607 333.276ZM880.09 262.374L856.29 268.751L838.161 319.555L864.937 312.38L880.09 262.374ZM889.743 204.276L866.889 210.4L892.253 305.061L915.107 298.937L889.743 204.276ZM880.59 227.455L875.408 208.117L855.259 213.516C847.235 215.666 840.824 218.785 836.025 222.873C831.317 226.937 828.193 231.687 826.654 237.124C825.092 242.471 825.132 248.209 826.774 254.34C828.393 260.38 831.227 265.37 835.278 269.309C839.305 273.158 844.373 275.665 850.483 276.83C856.683 277.971 863.795 277.466 871.818 275.316L891.967 269.917L887.221 252.202L868.694 257.166C865.719 257.963 862.984 258.213 860.489 257.916C857.969 257.528 855.882 256.589 854.227 255.1C852.547 253.521 851.357 251.424 850.657 248.81C849.956 246.196 849.95 243.83 850.639 241.713C851.304 239.505 852.63 237.604 854.619 236.008C856.607 234.413 859.088 233.216 862.063 232.419L880.59 227.455ZM961.747 184.983L953.957 216.493L931.997 192.954L903.734 200.528L945.164 238.85L925.717 296.094L953.98 288.521L963.388 252.23L989.14 279.1L1017.4 271.527L972.616 231.495L990.01 177.41L961.747 184.983Z" fill="white"/>
<path d="M55.6208 347.668C54.0506 341.808 54.0171 336.454 55.5204 331.607C57.0236 326.759 59.604 322.686 63.2614 319.387C67.009 316.064 71.4522 313.713 76.5909 312.337C81.0985 311.129 85.2223 310.652 88.9622 310.906C92.6778 311.07 96.1537 311.781 99.3897 313.04C102.602 314.208 105.534 315.597 108.187 317.205L101.593 292.593C97.0092 290.632 92.2341 289.4 87.2674 288.894C82.3008 288.389 76.3466 289.067 69.4048 290.927C61.832 292.956 55.1591 296 49.3863 300.059C43.6135 304.118 39.0201 308.973 35.6059 314.622C32.1918 320.272 30.0318 326.455 29.126 333.171C28.2202 339.888 28.7577 346.943 30.7385 354.335C32.7194 361.728 35.7812 368.106 39.9239 373.47C44.0667 378.834 49.0288 383.108 54.8103 386.294C60.5918 389.479 66.997 391.387 74.0259 392.015C81.0548 392.644 88.3557 391.944 95.9286 389.915C102.87 388.055 108.366 385.665 112.414 382.744C116.463 379.823 119.982 376.368 122.971 372.378L116.377 347.767C114.883 350.486 113.037 353.154 110.84 355.772C108.643 358.39 105.988 360.744 102.876 362.834C99.7645 364.924 95.9548 366.573 91.4471 367.781C86.3084 369.158 81.2855 369.344 76.3784 368.34C71.5614 367.311 67.2901 365.074 63.5645 361.628C59.8147 358.091 57.1668 353.438 55.6208 347.668ZM110.196 304.202L136.16 297.245L156.053 371.486L178.907 365.362L159.014 291.121L185.113 284.128L179.642 263.708L104.725 283.782L110.196 304.202ZM189.993 260.934L215.358 355.595L238.212 349.471L212.847 254.811L189.993 260.934ZM209.364 275.89L227.891 270.926C232.489 269.694 236.373 269.765 239.543 271.138C242.713 272.511 244.829 275.181 245.892 279.147C246.931 283.024 246.421 286.349 244.362 289.123C242.303 291.897 238.975 293.9 234.377 295.132L215.85 300.096L220.887 318.893L239.413 313.929C247.437 311.779 253.827 308.763 258.584 304.879C263.407 300.881 266.6 296.209 268.163 290.862C269.702 285.426 269.625 279.552 267.934 273.241C266.195 266.75 263.312 261.58 259.285 257.731C255.259 253.882 250.17 251.477 244.018 250.517C237.932 249.442 230.878 249.979 222.854 252.129L204.328 257.093L209.364 275.89ZM305.727 280.652C304.229 275.063 303.995 269.859 305.023 265.042C306.117 260.111 308.322 255.897 311.636 252.4C315.041 248.879 319.448 246.394 324.857 244.944C330.356 243.471 335.415 243.42 340.034 244.791C344.653 246.162 348.624 248.721 351.948 252.469C355.247 256.127 357.645 260.75 359.143 266.339C360.64 271.929 360.842 277.189 359.748 282.121C358.719 286.938 356.503 291.107 353.098 294.628C349.784 298.125 345.467 300.586 340.148 302.011C334.739 303.461 329.68 303.512 324.97 302.165C320.351 300.793 316.347 298.291 312.958 294.658C309.635 290.91 307.225 286.242 305.727 280.652ZM281.521 287.138C283.477 294.441 286.494 300.831 290.571 306.309C294.738 311.763 299.679 316.14 305.395 319.44C311.2 322.716 317.551 324.782 324.448 325.64C331.321 326.407 338.499 325.788 345.982 323.783C353.374 321.802 359.855 318.761 365.423 314.66C370.967 310.469 375.389 305.516 378.689 299.801C382.079 294.061 384.17 287.8 384.961 281.017C385.843 274.21 385.305 267.156 383.349 259.853C381.392 252.551 378.342 246.218 374.2 240.854C370.057 235.49 365.095 231.215 359.313 228.03C353.532 224.844 347.217 222.913 340.368 222.236C333.585 221.444 326.543 222.027 319.24 223.984C312.028 225.916 305.638 228.933 300.07 233.034C294.477 237.045 289.974 241.875 286.56 247.524C283.145 253.174 280.94 259.369 279.944 266.11C279.039 272.826 279.564 279.836 281.521 287.138ZM478.37 209.173L471.401 180.459L404.974 279.278L411.943 307.993L478.37 209.173ZM407.218 202.729L385.31 208.599L411.943 307.993L427.835 279.675L407.218 202.729ZM471.401 180.459L455.591 209.624L475.991 285.759L498.033 279.852L471.401 180.459ZM488.681 202.787L514.645 195.83L534.538 270.071L557.391 263.947L537.499 189.706L563.598 182.713L558.126 162.293L483.209 182.367L488.681 202.787ZM593.898 203.437C592.328 197.577 592.294 192.223 593.798 187.376C595.301 182.528 597.881 178.455 601.539 175.156C605.286 171.833 609.729 169.483 614.868 168.106C619.376 166.898 623.5 166.421 627.239 166.675C630.955 166.839 634.431 167.55 637.667 168.809C640.879 169.977 643.811 171.366 646.465 172.974L639.87 148.362C635.286 146.401 630.511 145.169 625.545 144.664C620.578 144.158 614.624 144.836 607.682 146.696C600.109 148.725 593.436 151.769 587.664 155.828C581.891 159.887 577.297 164.742 573.883 170.391C570.469 176.041 568.309 182.224 567.403 188.94C566.497 195.657 567.035 202.712 569.016 210.104C570.997 217.497 574.058 223.875 578.201 229.239C582.344 234.603 587.306 238.877 593.088 242.063C598.869 245.248 605.274 247.156 612.303 247.784C619.332 248.413 626.633 247.713 634.206 245.684C641.148 243.824 646.643 241.434 650.692 238.513C654.74 235.592 658.259 232.137 661.248 228.147L654.654 203.536C653.16 206.255 651.314 208.923 649.117 211.541C646.92 214.159 644.265 216.513 641.154 218.603C638.042 220.693 634.232 222.342 629.724 223.55C624.586 224.927 619.563 225.113 614.656 224.109C609.839 223.081 605.567 220.843 601.842 217.397C598.092 213.86 595.444 209.207 593.898 203.437ZM714.39 175.934L690.589 182.312L672.46 233.115L699.236 225.94L714.39 175.934ZM724.042 117.837L701.188 123.96L726.552 218.621L749.406 212.497L724.042 117.837ZM714.889 141.015L709.707 121.677L689.558 127.076C681.534 129.226 675.123 132.345 670.324 136.433C665.616 140.497 662.492 145.247 660.954 150.684C659.391 156.031 659.431 161.769 661.073 167.9C662.692 173.94 665.527 178.93 669.577 182.869C673.604 186.718 678.672 189.225 684.782 190.39C690.982 191.531 698.094 191.026 706.117 188.876L726.267 183.477L721.52 165.762L702.993 170.726C700.018 171.524 697.283 171.773 694.788 171.476C692.268 171.088 690.181 170.15 688.526 168.661C686.846 167.081 685.656 164.985 684.956 162.37C684.255 159.756 684.25 157.39 684.938 155.273C685.603 153.066 686.93 151.164 688.918 149.569C690.906 147.973 693.387 146.777 696.362 145.979L714.889 141.015Z" fill="white"/>
<path d="M189.235 179.148L225.645 211.714L241.028 165.27L259.644 212.025L283.715 205.575L241.801 110.276L216.84 178.853L161.069 131.908L172.421 235.397L196.492 228.947L189.235 179.148ZM365.964 107.589L358.995 78.8743L292.568 177.694L299.537 206.409L365.964 107.589ZM294.812 101.145L272.904 107.015L299.537 206.409L315.429 178.091L294.812 101.145ZM358.995 78.8743L343.185 108.04L363.585 184.174L385.627 178.268L358.995 78.8743ZM380.269 78.2466L405.634 172.907L428.487 166.784L403.123 72.1229L380.269 78.2466ZM399.64 93.2026L418.167 88.2384C422.765 87.0065 426.649 87.077 429.819 88.45C432.989 89.8229 435.105 92.4928 436.168 96.4595C437.207 100.336 436.697 103.661 434.638 106.435C432.579 109.21 429.251 111.213 424.653 112.445L406.126 117.409L411.163 136.206L429.689 131.241C437.713 129.092 444.103 126.075 448.86 122.191C453.683 118.193 456.876 113.521 458.439 108.175C459.977 102.738 459.901 96.864 458.21 90.5533C456.471 84.0623 453.588 78.8923 449.561 75.0433C445.535 71.1944 440.446 68.7896 434.294 67.829C428.208 66.7541 421.154 67.2916 413.13 69.4415L394.604 74.4057L399.64 93.2026Z" fill="white"/>
<circle cx="333" cy="274" r="23.5" stroke="white" stroke-width="17"/>
<path d="M353.823 45.2223C360.342 29.3195 373.949 16.5361 391.831 11.7445C409.714 6.95292 427.889 11.2202 441.486 21.7333" stroke="#E83E8E" stroke-width="13"/>
</svg>
